<?xml version="1.0" encoding="UTF-8" standalone="no"?>
<!-- Created with Inkscape (http://www.inkscape.org/) -->
<svg xmlns:rdf="http://www.w3.org/1999/02/22-rdf-syntax-ns#" xmlns="http://www.w3.org/2000/svg" height="32" width="32" version="1.1" xmlns:cc="http://creativecommons.org/ns#" xmlns:dc="http://purl.org/dc/elements/1.1/">
<metadata>
<rdf:RDF>
<cc:Work rdf:about="">
<dc:format>image/svg+xml</dc:format>
<dc:type rdf:resource="http://purl.org/dc/dcmitype/StillImage"/>
<dc:title/>
</cc:Work>
</rdf:RDF>
</metadata>
<g transform="translate(-576.51154,-295.86765)">
<path fill="#555" d="m579.89,299.24c4.5027-4.5027,11.806-4.5027,16.308,0.00006,4.0722,4.0722,4.4169,10.425,1.1232,14.936l11.191,11.191-2.4962,2.4962-11.191-11.191c-4.5102,3.2936-10.863,2.9491-14.935-1.1234-4.5028-4.5026-4.5028-11.806-0.00008-16.308zm2.1218,2.1219c-3.3423,3.3421-3.3839,8.7642-0.0416,12.107,3.3423,3.3422,8.8059,3.3422,12.148-0.00002,3.3422-3.3424,3.3006-8.7643-0.0417-12.107-3.3422-3.3421-8.7226-3.3421-12.065,0.00013z"/>
</g>
</svg>
