<?xml version="1.0" encoding="UTF-8" standalone="no"?>
<!-- Created with Inkscape (http://www.inkscape.org/) -->
<svg xmlns:rdf="http://www.w3.org/1999/02/22-rdf-syntax-ns#" xmlns="http://www.w3.org/2000/svg" height="1193.1" width="2445" version="1.1" xmlns:cc="http://creativecommons.org/ns#" xmlns:dc="http://purl.org/dc/elements/1.1/">
<metadata>
<rdf:RDF>
<cc:Work rdf:about="">
<dc:format>image/svg+xml</dc:format>
<dc:type rdf:resource="http://purl.org/dc/dcmitype/StillImage"/>
<dc:title/>
</cc:Work>
</rdf:RDF>
</metadata>
<path fill="#d9d9d9" d="m966.67,0c-13.248,3.213-90.881,1.6563-33.091,4.8988-32.372,0.7092-53.088,5.3137-89.066,2.9592-29.145,6.0512-105.82,35.423-83.567,24.977,39.266,1.3629-36.4,12.483,35.269,10.124,40.088-1.7606,1.2148,46.409,23.94,27.294,7.9329,6.521,12.92,14.767-8.4514,12.401,28.364,10.084-21.649,29.041-10.086,23.121,24.372-1.3102-12.331,2.1666-2.287,15.458,18.924,8.5389-6.8009,3.3231,6.9549,25.462,16.638,15.503,35.547,20.393,27.471,16.012,10.528-16.848,23.274-31.004,43.43-44.039,13.022-10.674,144.05-35.215,77.417-33.863,9.2249-11.293-2.262-5.7607,34.195-8.067-24.347-9.8336-23.699-18.968-2.2973-14.573,30.13-10.731,0.59571-5.0724,22.855-16.782,5.3843-10.481-9.6562-9.4793,17.508-27.417-7.4977-3.2286,5.2856,0.74563,26.908-8.5834-54.35,5.4194-56.72-1.4253-82.12-1.3183,68.12,0.1087,25.65-9.3144-16.82-4.1239,23.05-2.9052,73.84-1.281,11.91-3.9424zm36.563,40.062,0.7389-0.05685zm-29.188,26,1.7601-0.17949zm-171.94,42.75-1.0395,0.25428zm0.125-6.3125-0.54859,0.22282zm6.4064-29.438,0.3165-0.48706zm130.41-72-0.10057,0.28134zm-4.0938,0.28125zm-5.5312,0.46875-0.0763,0.18172zm0.9062,0.34375zm-140.89,0.3442c-40.225,2.8668-51.861,4.2439-96.21,6.932,26.982,9.6043,60.272,12.237,32.521,6.542,63.199-4.9706-19.353,17.606-19.459,8.826-0.70068-0.96778-2.2845,14.239-11.84,10.816-74.92,1.7313,41.889,11.467,19.88,0.59467,56.84-10.2,4.57-15.16,55.43-15.16,67.97-15.775-5.73-5.014,64.14-14.991-14.67-3.1163-29.62-2.5361-44.46-3.5603zm112.31,0.90625,1.6298,0.17706zm-4.3125,0.1875,0.72788,0.41287zm-8.4375,0.46875-0.00067,0.10291zm-83,0.40625-1.1926,0.13552zm97.469,0zm-146.91,0.1564l1.138,0.01205zm137.75,0.6875,0.15671,0.27391zm-17.594,1.375,0.10811,0.26044zm143.91,0.5625,1.8469,0.92629zm6.6564,0.375,0.7157,0.22256zm-290.19,0.125,1.1493,0.19155zm648.12,1.125zm-357.59,0.3125,0.9066,0.32679zm377.66,0.21875zm-385.97,0.28125-0.068,0.31168zm365.75,0.5,0.1536,0.16342zm15.188,0.0625,1.1279,0.19492zm-695.63,0.25zm676,0.0625zm-2.8437,0.78125zm-699,0.0625c-32.401,7.0835-22.733,11.593-15.163,12.815-9.9533,14.482,65.956-2.1015,21.741-10.774l-6.5786-2.0408zm709.19,0,0.1488,0.29671zm-22.094,0.21875,1.076,0.34241zm192.62,0.1875zm-165.09,0.0625,1.0838-0.0037zm143.88,0.0937zm-153.19,0.3125-2.4596,0.40005zm6.8125,0,0.3677,0.19466zm25.406,0.0625zm-65.813,0.3125,0.097,0.27618zm35.813,0.0625,0.2043,0.10219zm13.781,0.0625zm-29.5,0.0625zm10.406,1.125zm4.25-1.0625,1.349,0.27402zm2.875,0-0.7535,0.13953zm99.25,0.6875zm-138.97,0.3125zm53.562,0.0312zm-14.188,0.15625-0.4186,0.55262zm-18.219,0.0312zm-31.375,0.25zm-128.12,0.5625,1.6835,0.31668zm-545.13,0.21875,0.058,0.23988zm135.31,0.1875-0.0358,0.28964zm410.31,0.0937,0.6638-0.03243zm174.09,0.0625-0.2644,0.2648zm-20.531,0.0937,0.8378,0.2876zm4.3127,0.1875-0.1141,0.37546zm3.8123,0.219,0.1682,0.28119zm14.031,0.15625zm-165.12,0.0625zm158.62,0,0.7166,0zm-152.94,0.0937,0.7391,0zm144.41,0.0937-0.5078,0.35094zm3,0.1875-0.6985,0.15183zm3.2188,0.15625,0.9059-0.01912zm-13.406,0.0625,0.6191,0.056zm-136.38,0.0625,0.9726-0.09931zm152.19,0.0937zm-19.906,0.125,1.0935,0.10351zm-159.91,0.0312,0.2005,0.32409zm174.72,0.125-1.0599,0.24755zm-353.09,0.375zm247.31,0.0625zm80.875,0.125,0.1934,0.38819zm48.031,0.15625,0.2134,0.1713zm-152.47,0.21875,0.066,0.26818zm329.62,0zm-934.56,0.15625zm754.03,0.125,1.2633,0.73607zm-46.25,0.25,0,0.27218zm196.75,0.0312zm-190.16,0.0937zm-164.2,0.162c-38.803,4.8845-12.38,22.053-8.1001,14.409-42.521,8.5665,67.023-1.1083,8.1001-14.409zm200.78,0.4375,0.8719,0.21656zm-226.91,1.0625,0.3608,0.24372zm383.84,0.28125,1.9731,0.22309zm42.031,0.1875,0.9446,0.16593zm-113.53,0.4375zm-733.53,0.65625,0.82112,0.09978zm811.91,0.53125-1.2155,0.0143zm2.6564,0.0625,0.0004,0.24224zm47.906,0.125zm-397.59,0.0937-0.4034,0.27437zm-597.53,0.219c-25.294,10.667,38.572,8.2936,0-0.00002zm416.59,0.84375-0.8946,0.56093zm183.94,0.6875,0.1205,0.32218zm-479.12,0.25,1.1305,0.025zm518.34,0.65625zm-231.88,0.3125-0.654,0.59833zm145.44,0.25zm-139.34,0.0625-0.5012,0.61211zm-386.78,0.344zm112.75,0.1875,0.0817,0.29205zm490.59,0.0312,0.7901,0.31376zm-666.5,0.156zm448.25,0.4375-0.9616,0.18292zm192.84,0.3125zm-533.31,1.125-1.875,0.85182zm335.09,0.21875,0.6856,0.54941zm1.5938,0.59375-1.1262,0.08873zm613.19,0.0312-0.8965,0.20753zm-982.78,0.25-0.70244,0.35323zm-41.094,0.0625-1.9319,0.61946zm5.5938,0.21875-1.0584,0.37514zm397.19,0.0312,0.089,0.27126zm212.56,0.0312zm-527.17,0.063l1.6188,0.16702zm940.5,0.0312,0.9913,0.41246zm-618.12,0.25-0.8757,0.14508zm-447.81,0.1875zm440.09,0.5-0.8317-0.16713zm-3.9689,0.34375-0.87,0.32654zm-399.12,0.5zm416.12,0.0937-2.0473,1.3096zm-295.44,0.28125-1.2159,0.42377zm-140.12,0.53125zm50.55,0.032zm985.28,0.53125c-5.4165,17.849-76.32,38.799-65.779,21.48-30.96,1.6482-7.9325,19.166-23.74,15.204-35.462-1.0085,10.496,20.813-28.418-2.6018-7.3282,33.475,66.457,31.396,17.834,34.041-27.588,51.77-8.4692-70.984-54.859-22.394,43.789,33.793-41.85,0.92736-64.037,19.462-21.646,18.984-62.636-16.902-49.326,15.554-38.651-0.24994-28.504,33.897-62.044-2.3487-3.3228,3.4874,88.963-3.5321,3.1393-20.544-31.841,1.2386-24.198-18.387-53.278-7.7681-13.084-4.9523-67.938,22.699-51.879,16.193-2.1138,0.80814-15.66,24.313-24.856,32.203-34.497,5.7474-44.615,23.695-34.54,22.318,8.8185,4.925-4.8898,37.337,31.834,10.479,15.426,67.043,57.475,2.6197,44.27-26.056,52.829-37.858,15.47-10.19,27.001,20.225,48.699,2.4934,46.169-1.589,9.4421,14.679,1.5932,13.665-28.041,45.36-62.586,35.288-37.472,8.2278-12.787-44.241-33.875-17.352,12.109,31.535-37.916,37.779-60.941,56.925-57.046-3.0455,36.454,49.724-26.708,50.695-59.857-14.453-40.659,91.268,11.8,56.857,24.33-39.209,71.08-92.939,112.06-37.435,20.025,46.465,50.258-0.75873,4.5552-12.123-60.272-87.599,139.7,98.994,56.341,36.412-10.32,11.687,25.347,15.074,4.3552-13.741,9.5282-12.974,53.255,5.7679,38.145-32.578,8.6838-32.574,30.167-24.723,39.616-7.1478,7.1394-9.8766,36.954-35.442,17.91-3.4126,115.33,61.839-122.86,7.0849-50.125,36.425-36.49-2.8229-11.385,48.456,12.308,34.748,71.876-17.718,27.825,79.77-26.446,44.999-47.756-13.307-72.266,23.53-119.78-23.804,14.605-59.406-85.1,5.5563-115.01-12.574-23.113,50.309-94.564,83.88-83.597,146.55-9.74,49.889-7.116,49.087,21.074,86.82,31.123,74.455,117.69-4.4011,156.06,35.909,44.412,2.1108-4.3581,46.931,23.412,66.55,53.857,46.28-16.57,116.54,30.919,169.27,3.2035,57.068,27.248,142.19,98.311,87.185,57.997-50.797,43.057-114.69,99.805-160.38-45.243-93.62,60.064-138.58,80.966-219.95-53.487,21.819-94.855-32.332-110.02-87.101-38.339-49.313-40.759-100.02-3.6726-39,40.727,37.964,36.333,156.38,112.25,91.705,47.028-12.255,78.079-88.291,24.564-87.099-25.448,20.793-58.275-16.993-49.601-44.213,37.928,49.361,104.04,27.935,149.44,57.404,22.178,27.948,39.216,6.8597,49.69,77.475,22.246,89.285,47.362,39.219,54.597-13.127,21.422-20.032,78.566-42.977,59.572-49.108,1.5672-35.474,58.493,74.164,40.208,51.052,44.124-24.332,21.097,72.875,49.689,92.312,47.392,74.747,13.938-16.196-11.45-42.791-1.9851-57.268,54.001,13.995,49.369,11.232,55.038-25.064-23.177-76.407,6.1268-108.64,22.99,20.421,30.03-16.9,60.24-12.716,17.722-15.723,25.912-38.157,27.056-58.343-14.256-21.385-15.376-15.917-30.449-53.703,33.465-17.413-67.105-17.482-3.6756-40.924,2.8489,24.162,54.138,9.571,54.241,53.985,27.753-18.222-39.432-76.099,24.502-83.842,22.083-52.429-24.777-83.321-56.86-86.919-40.697-57.324,108.65-30.921,77.431-39.597-17.849-27.414,30.078-12.828,36.366-18.642-25.551,24.471,40.926,110.25,42.842,71.398,12.636-22.055-13.194-31.139-25.32-56.724,26.417,4.3726,43.13-14.364,66.74-20.981-69.016-18.884-19.152-32.417,23.289-13.326,4.3392-23.633-54.938-19.295-101.23-37.801-52.449,0.20044-88.869-0.32977-163.64-13.193-45.991-6.5493-33.68-7.5375-70.308-8.5381,4.0896,13.178-76.81-5.815-61.093,3.1772-20.054-16.646-134.84-16.595-109.2-11.316-37.679,19.314,38.55-32.794-32.615-19.768-18.897-3.2657-3.7521-0.24489-28.395-6.5952zm-167.66,409.66,0.8678,0.5234zm-372.7-94.19l0.01-0.27102zm67.719-145.78-0.8996,0.0512zm57.25-63.281-0.6072-0.0276zm-546.03-106.22zm118.81,0.15625-1.1208,0.20148zm-92,0.3125-0.88429,0.09135zm-155.47,0.343zm247.69,0.125-0.88611,0.16955zm736,0,1.077,0.14627zm-759.44,0.3125zm881.24,0.032l-0.1244,0.29694zm-887.28,0.0312,2.1988,0.47345-2.1948-0.47325zm256.87,0.15625,0.7328,0.03876zm546.06,0.78125-0.017,0.34741zm-897.5,0.34375-0.98327,0.37119zm123.34,0.375-0.89113,0.16708zm809.84,0zm-999.09,0.1875-1.0747,0.14869zm961,0.0625,0.2832,0.32499zm5.2187,0.0937,1.1945,0.11305zm-1012.2,0.15635-0.72439,0.25076zm86.25,0.4375c-7.966,12.703,44.735,29.783,68.239,10.537-53.18,1.45-33.86-2.657-68.34-10.536zm-6.8438,0.125-0.93721,0.12853zm823.41,0.15625c-35.538,2.601-68.075,42.42-60.78,28.89,34.255,38.559,1.8871-8.8535,41.777-19.354,0.8815-0.51035,44.538-5.8096,19.002-9.5366zm-50.844,42.188-1.1326-0.25887zm193.47-41.75-0.149,0.20936zm-1051.8,0.0625zm463.03,0.25,1.2693,0.08773zm-343.75,0.25zm-94.5,0.21875c-22.9,8.267-73.87,4.715-38.19,11.115-17.36,3.576,22.47-29.963,38.08-11.115zm-23.062,6.4062,1.093-0.14848zm1056.4-6.0938,1.0319-0.03215zm259.72,0-0.7982,0.60208zm-1247.2,0.125-0.33432,0.2558zm-4.375,0.0937zm409.78,0.0625zm583.09,0.0625,0.8563,0.47445zm-11.312,0.0625,0.1428,0.25599zm2.1562,0,1.0905,0.15009zm4.625,0-1.5252,0.2629zm-979.94,0.21875,1.0188,0.18219zm1.375,0.15625,0.1206,0.004zm0.0625,0.0312zm-28.25,0.0312zm415.87,0,0.1271,0.27193zm-243.81,0.25-0.19652,0.28922zm246.25,0.125-0.6295,0.25156zm-0.125,0.46875-0.9909,0.25252zm-354.47,0.0625,0.84553,0.15118zm105.81,0.3125,0.66739,0.0053zm250.94,0.125-1.0245,0.1817zm-0.75,0.4375-0.4551,0.24042zm591.91,0.1875,0.1277,0.78184zm-2.7187,0.0312,0.8812,0.11574zm-1006.5,0.094zm998.62,0.4375,0.1312,0.29873zm222.53,0.375zm-1111.9,0.0312-0.67437-0.03762zm716.69,0-1.6878,0.2025zm-785.81,0.375-1.1062,0.43339zm168.5,0-0.88316,0.15771zm-88.531,0.0625zm-196.47,0.096zm1089,0.0625-1.7064,0.59823zm-190.31,0.21875-0.7567,0.1121zm-924.59,0.0625,0.48014,0.0859zm1041.6,0.375,0.4998,0.31098zm-899.5,0.1875-1.6308,1.0289zm370.44,0-0.3585,0.0413zm409.59,0.0312-0.9963,0.30493zm-914.06,0.28125-1.9167,0.92892zm914.62,0-0.7135,0.11416zm113.69,0,1.3278,0.16203zm-1036.8,0.0625,0.71266,0zm96.375,0.25-0.212,0.17218zm997.81,0.125-0.7818-0.04209zm217.84,0.125zm25.875,0.875,1.1058,0.2456zm-1199.3,0.5zm-27.719,0.0625-2.4291,0.30649zm19.062,0.0625zm1240.2,0.3125zm-329.19,0.4375,0.6853,1.223zm-952.41,0.5zm441.59,0.1875zm-13,2.2812zm552.41,0.46875-1.477,0.48346zm-7,1.1562,0.056,0.37944zm5.125,0,1.1216,0.22864zm-544.03,1.0625-0.046,0.38294zm-396.66,0.0937-1.0392,0.718zm904.03,0.0625,1.5211,0.58955zm-913.19,0.0937-2.0617,0.85755zm208.94,0.0625-0.54855,0.0987zm734.56,0.125-0.6823,0.20769zm1.9375,0.0937,0.8656,0.23375zm3.0312,0.0625,0.1599,0.53229zm-1075.7,0.094c-76.47,16.178-14.02,33.74,22.2,4.062-7.29-3.088-14.88-0.367-22.16-4.061zm336.69,0.0625,0.7848,0.17893zm874.44,0zm-481.97,0.25-0.019,0.42936zm340.47,0.0312,0.2007,0.44232zm-547.53,0.4375zm551,0.096l1.0986-0.04755zm-136.41,0.40625,0.7099,0.06173zm-818.41,0.1875-0.91829,0.02012zm1243.2,0.375zm-26.7,0.281zm-259.5,0.375,1.0757,0.24539zm-931.42,0.031c-53.38,12.391-24.26,40.275-63.91,52.024,23.26-15.906-37.15-15.671-52.27-10.576-9.9952,15.909-40.417,1.6581-61.826-6.9401-26.424-9.1553-73.621,0.70842-64.001-3.5613-29.147,17.735-97.888-20.19-146.85-4.3671-60.792-0.32918-43.265,27.674-63.696,32.31-27.201-12.723-51.253,21.337-6.5563,10.762-65.634,22.799-70.961,36.291-55.771,44.408,72.383-3.4224-119.41,51.79-7.164,19.727,42.573-11.332,118.09-56.826,76.193-24.313,29.329-18.854,41.528-4.4102,71.729-2.6439-3.8281,23.56,30.579-7.2932,16.419,24.086-6.6298,17.039,7.703,5.3989-6.1832,27.619,14.929,3.3515-8.8829,25.9,6.0325,23.766,13.568-1.653,10.388,39.369-5.2737,19.166-27.081,43.089-67.183,93.329-22.393,135.22,6.3175,41.157,4.5269,48.841,29.838,81.682-11.397-32.769-27.233-118.28,8.2281-32.032,15.488,42.72,34.515,104.74,98.424,91.748,43.317,17.17,52.611,44.798,82.633,68.374,41.638-23.851,50.886,49.081,16.336,68.635-11.848,41.744,11.769,92.738,49.299,138.79,75.858,41.122,25.28,151.88,51.615,220.08,21.508,8.2083,25.994,49.282,8.0935,45.451,13.819,6.6373,16.008,14.389,21.74,31.231,15.07,17.566,18.143,18.48,21.075,18.949-1.2349,11.046,16.339-25.448,18.575-7.1135,10.149-29.743-16.868-55.429,6.0115-78.774-36.654-18.079,71.212-33.816,16.477-77.935-5.3632,25.199,41.559-28.833,49.93-18.376-0.20247-9.78,20.319-74.93,64.032-81.395-8.9878-60.063,88.987-147.52-11.193-162.94-30.423-0.90457-41.997-21.691-69.569-9.8754,41.833-29.948-45.248,21.19,4.0454-27.775-2.4115-43.471-53.841-28.732-65.668-54.581-28.755-19.215-21.349-29.269-64.984-23.547-30.399-30.989-32.901,34.912-33.303-15.187-32.862,39.672-103.06,42.995-88.132-27.213-72.153,24.762,18.138-86.971-44.268-39.694-50.886,53.161-70.412-63.826-19.735-78.016,43.955-21.273,27.801,22.378,49.598-11.63,47.886-24.127,51.891,87.867,56.047,9.4503-7.5435-38.304,68.203-46.609,49.559-68.53,8.0707-31.156,8.1338,6.3833,15.376-19.243,37.439-8.3286,47.146-42.705,93.238-53.407-15.24,14.743-3.2324,20.694,33.155-4.9142,0.19272,4.783-56.507-8.964-20.582-24.157-54.289,13.262-53.886,18.668-2.4595-10.234,49.86,17.052,88.161-40.331,54.291-29.695,17.173,0.67114-35.026-82.314-6.5691-34.257,8.6155-29.841-42.673,14.701-37.744-6.6044,24.697-26.813-45.727-42.183-54.276,1.0585,1.9134,14.119-49.27,87.699-52.741,48.596,19.996-34.584-91.386-30.862-25.477-70.813,30.836-22.071,27.024-10.088,55.822-27.941-22.945-9.1961,57.838,0.50169,57.55-30.469-35.832,4.0918-40.417,15.561-53.644-2.128-8.51-18.139,60.32-31.793,24.85-32.177zm87.125,137.19,0.57199-0.18063zm-248.53,223.94-0.10282-1.0464zm-79.625,97.812-0.97909,0.24154zm347.81,167.84,0.54347-0.70145zm-239.25-31.094-0.21875-0.46054zm0.59375-0.125-0.82545-0.44394zm-238.42-191.47l0.23175,0.78605zm14.5-220.66-0.35823,1.2723zm-106.62-112.62-0.71086,0.19903zm-24.188-5.625,0.98826-0.50356zm240.81-33.875,0.73743-0.14182zm46.594-2.1875,0.24755-0.71945zm1115.7-28.938,0.1893,0.46545zm3.125,0,0.7715,0.45219zm-943,0.285zm40.875,0.375-1.1977,0.26288zm908.41,0.25-0.2035,0.23564zm10.844,0.3125,0.9752,0.31562zm290.8,0.438zm-1036.2,0.125,0.75892,0.34322zm-154.53,0.5c-66.281,13.425-20.485,36.052,13.944,24.288,10.626,8.5798,4.1548,23.889,21.58,28.594-55.008,12.154-37.703,10.196-0.0144,32.802,4.2807-9.1365,39.321,0.16344,17.786-29.605,12.574-4.2681,29.614,14.929,37.664-6.7999-7.9258,1.0226-34.922-15.146-26.124-12.711,20.756-13.148-6.9286,1.3419,5.5405-12.075-14.808-3.0131-5.4835-7.7375-24.652-8.6117,15.507-11.577-111.3-0.87905-42.98-12.072-18.025,14.668-23.426,19.157-2.7446-3.8096zm57.875,20.938zm1.7188,54.25,0.38594,0.63977zm92.969-75.094,1.0317-0.22149zm-256.97,0.0625zm132.53,0.1875zm126.34,0.034l0.66116,0.0049zm-0.875,0.59375-1.559,0.19774zm1.2187,0.34375-0.99281,0.4149zm-270.79,0.062l-0.51761,0.38603zm271.16,0.375,1.568,0.54983zm693.16,0-2.4828,0.84796zm21.906,0,0.8773,0.1672zm-20.781,0.21875,2.5223,0.38588zm-697.16,0.0625,0.71651,0zm668.36,0.219zm-665.28,0.15625,0.57855-0.1312zm164.03,0zm424.28,0.34375,0.6592,0.60588zm-585.37,0.0625-1.074,0.51372zm-3.3125,0.0937-1.0018,0.47627zm669.62,0.0625-0.7833,0.46418zm-944.03,0.25c-16.963,20.667-38.793-15.915-70.911,12.082,13.156,3.451-10.65,6.3815,22.022,10.033-76.071,7.2926,56.092-11.012,53.681,3.4392-11.902,2.585,13.629-25.952-4.7919-25.554zm274,0.75-1.5161,0.8961zm697.69,0.4063-0.264,0.26105zm-913.87,0.0937-2.1224,1.2139zm903.62,0.34375,1.4316,0.85225zm-517.91,0.156zm543.51,0.406zm-711.84,0.0937,0.0669,0.31802zm977.56,0.9375,1.0893,0.04772zm-1196.4,0.0938-1.4561,0.84983zm217.78,0,0.38659,0.13354zm165.84,0.0937zm-164.12,0.1875-1.8069,1.0023zm-3.5,0.46875-1.1619,0.39758zm3.875,0.625-1.3545,0.35853zm678.97,0.125,0.6584,0.28624zm26.406,0.375zm-710.06,0.125-0.96086,0.0028zm3.5939,0.0937-0.98633-0.02473zm-2.9377,0.4375-0.60195-0.05964zm-127.81,0.5-0.33759,0.73919zm3.1875,0.125-0.69253,0.6323zm127.16,0.375-2.6872,0.95399zm-302.59,0.4375-0.69501,0.44449zm180.25,0.5,1.4709,0.31926zm16.344,0.28125-0.70851,0.25507zm-112.81,2.5938-0.73089,0.68301zm111.16,0.71875,0.63628-0.12198zm1145.6,0.25,0.056,0.25978zm-1138.8,0.0312-1.0212,0.49004zm2.0625,0.21875-0.90471,0.41001zm1364.5,0.404zm-232.16,0.0312,0.8923,0.78581zm-892.53,0.21875,0.70695,0.08943zm-253.62,0.0625-0.97499,0.25809zm11.312,0-1.0735,0.92112zm108.53,0.34395-0.9498,0.11181zm569.12,0.8125zm-570,0.25,1.1062,0.5913zm-3.4689,0.46875-2.0482,1.0899zm429.22,0.9375zm-183.25,0.0625zm-341.22,0.0937-1.1372,0.44544zm515.81,0.5-0.5974-0.0801zm-0.8436,0.375,0.4501,0.42703zm-412.75,0.34375,0.89216,0.31968zm132.81,0.53125-0.0984,0.3434zm275.16,0.625zm-407.59,0.5625,0.95175,0.20539zm411.62,0.21875,0.7887,0.6859zm-677.63,0.28125zm-150.81,0.0937-1.0445,0.40708zm827.28,0.1875zm-760.69,0.3125-0.70322,0.1223zm-6.63,0.094l-0.14773,0.16851zm1.9375,0.0312,0.73917,0zm2.4688,0.0937-1.0395,0.30262zm353.38,0,0.93007,0.15373zm592.34,0-0.3414,0.22022zm-593.37,0.0625,0.68775,0.20065zm138.84,0.0625-0.19061,0.31954zm-494.44,0.15625,0.60749-0.0238zm337.31,0.21875,0.34879,0.31709zm622.25,0.25zm-198.59,0.46875,1.1211,0.37905zm-737.28,0.125,1.4823,0.48876zm316.59,0.4375zm401.94,0.28125,0.2556,0.7441zm2.3437,0.0937,1.0464,0.19294zm6.2813,0.0937-0.9966,0.59759zm-795.69,0.1875-1.6828,0.15326zm789.29,0.438l-0.9074-0.12562zm-584.53,0.0625,0.82274,0.76385zm580.22,0.28125,0.7182,0.12992zm3,0.15625zm46.469,0.125-2.2743,0.52764zm-33.656,0.15625,0.3263,0.3487zm806.47,0.0937zm-810.56,0.0312,0.8796,0.08654zm-5.8439,0.15625-0.8478,0.58056zm-531.9,0.439l-0.91207,0.21201zm142.28,0.125zm394.66,0-0.4382,0.76887zm50.656,0.125,0.4158,0.47511zm-18.781,0.1875-1.48,0.92528zm-649.02,0.062l-0.99667,0.91294zm48.688,0,0.50443,0.25454zm-84.125,0.21875zm82.91,0.281l0.88267,0.13507zm17.781,0.0625zm7.4688,0.375zm301.84,0.063l-0.82433,0.23998zm-245.47,0.21875-1.8758,1.0039zm-372.81,0.375-1.0766,0.38083zm913.47,0,1.5738,0.54568zm-887.88,0.156l-0.75473,0.48299zm219.38,0.0625-0.70775-0.03436zm-237.44,0.0625-0.70998,0.06176zm0.5,0-0.71083,0.19905zm210.19,0zm695.41,0.1875-0.7862,0.9875zm-538.97,0.0312-1.1338,0.31965zm-161.78,0.0625,2.3522,0.73788zm631.56,0zm-656.59,0.0312-0.42956,0.65173zm930.25,0-0.4523,0.71719zm-670.87,0.28125,0.59977-0.05725zm-423.28,0.0625-0.69395,0.58295zm-27,0.0625-0.0551,0.31253zm1020.6,0.0937zm-109.12,0.125-0.5481,0.88438zm-588.13,0.283zm-73,0.0625-1.002,0.53609zm-250.25,0.25-0.0531,0.36354zm315.56,0.125zm540,0,1.2938,0.50511zm-608.06,0.3125-0.12783,0.42846zm827.5,0.0625,2.12,0.86465zm-1106.4,0.1875-5.9683,4.5476zm870.09,0.1564-1.9496,1.689zm29.375,0.0625,0.8898,0.14815zm44.063,0.125-0.2226,0.70395zm-725.5,0.46875-0.89363,0.66031zm180.85,0.594l-1.02,0.66178zm-174,0.0937-0.45711,0.64976zm921.84,0.0312,2.4133,0.60818zm-205.62,0.21875,0,0.56064zm-576.12,0.0312-0.49689,0.33908zm-142.59,0.28125-1.2708,1.2092zm642.19,0.125zm3.875,0.28125zm4.125,0.125,0.034,0.28356zm50.969,0.0625-1.7475,0.88666zm-59.656,0.0312-0.547,0.30746zm224.28,0.0312,1.0739-0.03863zm-211.75,0.0625,0.6051,0.35149zm-0.875,0.71875-0.9857,0.39079zm-595.81,0.0937-1.2218,0.53339zm-66.844,0.0312-1.8374,0.77645zm889.81,0.0625-2.4124,0.47222zm-162.06,0.4375-0.6356,0.79776zm-454.12,0.21875-0.68228,0.20768zm1.5938,0.0625zm-127.06,0.0312zm545.69,0.0312,1.6008,0.29242zm-421.16,0.0937-0.71096,0.19905zm-122.19,0.0625-0.0688,0.58301zm-22.25,0.15625-0.90422,0.81831zm59.906,0.21875,0.65511-0.01963zm-206.28,0.3125,0.28645,0.7658zm668.31,0,0.069,0.30693zm-378.28,0.1875-0.65543,0.31348zm-323.37,0.0625-0.88348,0.3171zm710.22,0.0312-0.4249,0.61341zm14.469,0.28125,2.4483,0.4986zm-401.97,0.125-0.7851,0.47747zm582.84,0-1.5808,0.31037zm-202.09,0.125zm-500.22,0.0937,0.0151,0.89587zm-44.344,0.625-0.34148,0.27498zm587.66,0,0.8255,0.55318zm-48.656,0.15625,0.6015,0.75961zm-521.94,0.0625-0.10418,0.71761zm745.12,0-0.6823,0.20768zm-726.93,0.094zm502.62,0zm-452.94,0.21875,0.70322,0.1223zm-250.22,0.031l-1.0384,0.18938zm709.09,0.0937-0.6471,0.45396zm-569.31,0.0625zm113.75,0.21875-1.6607,0.40692zm-242.72,0.0937-1.2938,0.40764zm73.844,0-0.19744,0.26369zm-89.031,0.46875,0.25261,0.08972zm261.16,0.0312,0.38848,0.11848zm-48.531,0.0625zm492.03,0-0.6346,0.57284zm-364.16,0.0312-1.2691,0.29031zm-327.81,0.125-1.2381,0.44746zm317.16,0.21875-0.8055,0.37269zm373.53,0-0.8365,0.96087zm-688.47,0.125-0.66594,0.48055zm-5.25,0.375-0.73385,0.19757zm707.59,0,0.5965,0.14253zm11.5,0.0625,0.7096,0.089zm-14.5,0.3125,0,0.29746zm-697.47,0.125-0.78484,0.33498zm322.47,0zm-317.96,0.1l-0.80716,0.24366zm314.81,0.0312-1.3002,0.0522zm-348.91,0.0312-0.23486,0.0549zm18.875,0.0625-1.1598,0.46117zm756.19,0.0312-0.7467,0.25755zm-743.44,0.125-0.49387,0.23417zm-27.781,0.125-0.0168,0.0521zm804.97,0.125,1.7501,1.1808zm-808.84,0.0625-0.13643,0.0702zm774.34,0.3125,0.4718,1.8078zm-773.88,0.0625,0.70698,0.0922zm100.22,0.125-0.21569,0.16849zm-73.438,0.21875-0.25267,0.0897zm783.62,0.65625,0.1246,0.15288zm-778.56,0.2814-1.3473,0.95847zm248.81,0.1875-0.52017,0.58889zm-250.28,0.5-1.0494,0.6266zm-0.78125,0.21875-0.66635,0.46673zm1.375,0.5-0.88542,0.41479zm702.28,0.75,0.752,1.066zm-452.44,0.25,0.50261,0.27215zm494.72,0.25-0.2973,0.64437zm-674.59,0.46875-0.66379,0.25975zm173.97,0.0625-0.90388,0.2465zm2.8438,0.0937-2.5393,0.63591zm8.8438,0-0.10363,0.0962zm-255.5,0.125,0.3154,0.56847zm255.81,0.0937-2.3071,0.93228zm435.19,0.125-0.4326,0.31617zm-439.72,0.4375,0.71266,0zm0.375,0.21875,0.63307,0.0499zm72.781,0.0625-11.377,3.4492zm-328.69,0.375-0.37696,0.67163zm132.28,0.15625,0.55601,0.0317zm-130.75,0.125-0.72728,0.63817zm778.22,0.34375,1.4162,2.1958zm-647.66,0.375,0.0937,0.125zm559.28,0.28135-1.061,0.0271zm-380.03,0.375-1.1303,0.29954zm-175.91,0.34375-0.65406,0.34124zm77.094,0.15625-0.59885,0.46875zm491.69,0.125-1.0212,0.89409zm-182.53,1.5312c-15.835,11.234-58.479-3.2487-37.326,10.709-29.22,13.915,70.506,15.238,40.512-8.8986zm-290.84,0.84375,1.0909,0.24971zm14.531,0.375-1.5752,0.47419zm-108.28,0.0625,0.60607,0.4688zm557.84,0-2.6993,0.88462zm7.5312,0.15625-0.3448,0.50889zm-445.22,0.34375-0.78156,0.43769zm431.44,0.0312-1.0041,0.14691zm-468.97,0.5625,0.93135-0.00027zm465.97,0,0.3551,0.52636zm-556.25,0.53125zm557.03,0.81255-0.4623,0.43755zm-561.25,0.0625-0.48075,1.5852zm278.29,0.47l-0.84075,0.63341zm-282.31,0.3125zm275.41,0.28125zm5.3437,0-0.45559,0.81722zm-268.41,0.1875-0.43343,0.24675zm184.34,0.47zm-92.938,0.34375-0.94305,0.0902zm29.125,0.0937-0.0165,0.3281zm145.66,0.125-0.23081,0.409zm282.56,0.0625-0.1818,0.45093zm-374.31,0.3125-0.82376,0.36507zm433.81,0.875,0.5867-0.0674zm-434.47,0.21875-0.42116,0.5124zm76.594,1.3125,0.23445,0.25057zm-66.062,0.9063,0.24202,0.84627zm-7.9375,0.40625-0.66214,0.0663zm371.47,0.28125-0.9722,0.12905zm-506.09,0.375-1.1671,1.902zm581.69,0-0.1546,0.37005zm-441.87,0.75-0.81694,0.22073zm60.75,0.625,1.4234,2.5448zm-65.437,0.65625-0.56888,0.1991zm475.94,0.0937,0.5973,0.10861zm1.4687,0.1875,0.5142,0.41154zm-555.84,0.4375-1.9512,1.3114zm447.31,0.78125,0.4374,0.18131zm13.406,0.3125,1.4495,0.64848zm-378.47,0.125-1.9621,1.1454zm1.2187,0.0312-1.7915,1.6594zm-131.84,0.0312-0.92849,0.74661zm-4.6562,0.4375-0.79434,0.29178zm54.594,0.65625-0.0518,0.45816zm-0.875,0.4375-0.5478,0.47163zm-62.344,0.0625,0.62231,0.0632zm141.53,0.0625-0.70579,0.2813zm478,0,0.644,0.30366zm-416.19,0.25-0.23985,0.44057zm-2.5,0.15625-0.0121,0.19549zm-235.06,0.53125-0.68228,0.20762zm553.75,1.0938-0.708,0.0804zm-533.66,0.3125-0.7892,0.24336zm1.4375,0.25-0.65837,0.28624zm514.28,0.4375,0.8031,0.0921zm14.875,0.0625-1.294,0.95012zm1033.1,1.4688zm-931.12,0.0312,0.8765,0.52063zm-554.09,0.0312,0.54131-0.16269zm-77.469,0.4375,1.5521,1.0701zm75.75,0.3125-0.36182,2.1581zm451.16,0.46875-0.5608,1.2428zm-534.66,0.59375-0.65544,0.31347zm1.4375,0.0625zm-541,0.375zm704.72,0.1875-1.1477,0.22237zm-1.6563,1.75-0.67706,0.58873zm54.844,0.0625-0.36623,0.30097zm-56.156,0.0625-0.10121,0.70279zm-0.063,0.6875-0.00023,0.17805zm486.41,0.25,0.8054,0.7102zm-431.97,0.28125-0.71861,0.97777zm-243.87,0.094-0.66379,0.25975zm1.9062,0.28125zm65.781,0.125,0.6519,0.15813zm-0.15625,0.3125,0.73819,0.11355zm494.12,0.21875,0.054,1.2036zm-493.34,0.25,1.6067,1.3067zm468.81,0.625,0.2737,0.30706zm-490.25,0.25,1.1069,0.46191zm-21.812,1.1562,0.50661-0.0522zm1.3125,0,0.38743,0.11439zm211.81,0.0625-0.25217,0.53515zm-133.62,0.15625-0.80583,0.83204zm570.87,0.3125-0.7013,0.78327zm-661.34,0.6875zm436.06,0.65625,0.1,0.80541zm-2.6561,0.21875zm115.09,0.15625-0.011,0.22157zm-369.91,0.625-0.65407,0.34123zm-93.969,2.2188,0.44025,0.91744zm94.25,0.15625-0.65824,0.28627zm330.5,0.125zm5.6564,0.125-0.7283,0.0528zm-80.313,0.21875-0.017,0.56039zm-354.59,0.1875-0.21243,0.32062zm2.9062,1.125zm96.937,0.1875-0.7032,0.12231zm253.06,0.28125,1.2318,1.396zm76.156,1.125-0.6954,0.14142zm143.59,0.0625-1.5595,1.1896zm-568.09,0.8125-0.69157,0.33195zm467.59,0.5-0.3996,0.96299zm-371.53,0.21875-0.71246,0.1425zm-702.41,1.3438-0.46362,0.27214zm705,0.1875-0.55916,0.22716zm-605.12,0.25-0.9839,0.00091zm972,0-1.0446,0.18796zm-355.44,0.90625-2.6239,0.99165zm-615.94,0.125-0.8833,0.57621zm4.5938,0.15625-0.071,0.28908zm632.59,0.0625-1.0172,0.31606zm333.06,0.53125,0.9246,1.3471zm-549.41,0.125-1.1101,0.22505zm469.41,0.3125-0.4531,0.65856zm-275.16,0.0312-1.1148,0.41417zm-617.41,0.0937-0.28792,0.88617zm1.375,0.21875-0.78892,0.42481zm617.47,0.21885-0.92546,0.12376zm272.06,0.0625,0.01,0.87156zm1.4689,0.5625,0.3733,0.1825zm-2.8127,0.0937zm-877.62,0.0937-1.0117,0.57385zm472.62,0.25zm-484.34,0.59375-1.9735,1.507zm7.375,0.25zm495.81,0.0312,1.2351,0.49109zm120.53,0.21875-0.64909,0.39514zm0.3127,0.0312-0.92171,0.5159zm-608.91,0.25-0.90008,0.60483zm-128.94,0.09zm735.75,0.0312-0.91807,0.83301zm-619.91,0.0625zm-5.5312,0.0312-0.9675,0.26209zm43.375,0.8125,1.0013,0.161zm590.28,0.84375,1.0301,0.0354zm-2.6563,0.0312,0.35171,0.50109zm-633.31,0.125-2.0657,0.74388zm-0.8125,0.59375,0.4521-0.0603zm632.97-0.4375-0.90322,0.99872zm-631.31,0.375-1.2628,0.64951zm-1.3438,0.28125-0.99819,0.42862zm633.69,0.15625-1.0724,0.37096zm4.4063,0.0312-0.28999,0.36537zm-615.66,0.0937-1.9726,0.85576zm616.19,0-0.77216,0.6387zm1266.7,0.375,0.5439,0.35276zm-1270.5,0.094-0.14179,0.7261zm341.69,0.15625-0.6621,0.32797zm-562.41,0.3125-0.93567,0.89819zm-358.84,0.1875,0.009,0.78312zm18.344,0.59375-0.34397-0.0319zm902.06,0.4375-0.8884,1.5762zm-905,0.375-0.95827,0.10807zm-3.9062,1.5312-0.76723,0.21871zm-1.3438,0.34375-0.79218,0.63243zm-104.34,0.34375-1.0306,0.38598zm16.531,0.1875-1.0085,0.1422zm906.72,0.25,0.3685,0.64341zm3.125,0.5-0.9197,0.5607zm1027.1,0.56zm-1853.3,0.5-0.71467,0.14903zm414.72,0.125-0.51235,0.86986zm406.78,0.0625,1.4545,1.4127zm-808.09,0.34375-0.14797,0.78064zm967.09,0.0937zm31.75,0.0312-0.6143,0.73124zm-28.312,0.25,0.3162,0.26145zm-1081.6,0.6875-0.60568,0.30932zm917.97,0.25,0.4411,0.8107zm-807.25,0.6875,0.67079,0.51655zm810.06,0.0312-0.5785,0.5149zm-974.22,0.21875zm1135.4,1.125,0.3694,0.60761zm-164.19,0.125c-28.369,11.96,7.5412,37.711-3.938,32.824,3.0517,21.777-29.564,42.238,9.096,32.005,37.336,0.67419,13.333-31.257-6.5173-43.923,21.856-15.717-11.449-9.9538,1.3593-20.906zm-805.94,0.0625-0.17002,1.7311zm-116.12,0.28125-1.6528,0.95441zm1084,0.1875zm-180,0.84375zm-907.09,0.375zm1116.3,0.25-0.093,0.55564zm-51.562,0.2189,0.6638,0.25975zm-954.87,0.28125zm-105.97,0.78125-0.69373,0.5386zm98.656,0.0937zm1013.7,0.0312,0.1181,0.27028zm-1122.4,0.75-0.59376,0.60591zm1107.8,0.5,1.8196,0.45579zm-1109.1,0.58zm1072.4,0.15625-0.1472,0.5334zm-1069.2,0.0625-0.64916,0.39513zm-4.5312,0.0937-0.31843,0.51547zm1126.7,0.0312,0.5693,0.35862zm-1120.8,0.0314-0.22205,0.2457zm118.38,0.34375,0.66092,0.2212zm947.56,0.0312zm-503.12,0.1875-1.1257,0.36095zm558.78,0-1.8451,1.8265zm-557.75,0.40625-0.69904,0.46825zm345,1.25zm-6,0.0312-0.221,0.67856zm-452.06,0.5-0.77454,0.54642zm111.03,0.375-0.21106,0.35979zm1.5,0.34375-0.99916,0.50168zm347.47,0.125-0.4334,1.1167zm-8.1877,0.1875-0.2341,0.45428zm-800.16,0.0625zm459.56,0.34375,0.48207-0.11921zm-457.06,0.125-0.0694,0.43757zm797.34,0.3126-0.1416,2.0569zm152.94,0.28125zm-956.03,0.21875-2.1944,2.1647zm20.812,0.75-0.52413,0.58252zm1002.3,0.0937-0.2846,1.4569zm-1013.2,1.2813zm799,0.125,0.073,0.42417zm-346.06,0.8125-1.0259,1.7173zm-114.91,0.0312-0.75794,0.40024zm-0.8125,0.62495-0.2922,0.62568zm676.75,0.4375,0.7312,0.86364zm-216,0.9375-1.0296,0.77316zm-930,0.65635-1.1505,0.38978zm-2.125,0.0625-2.4938,1.1676zm-17.344,0.15625-0.15212,0.3231zm602.41,0.21875,0.86975,0.42717zm-110.75,0.0312zm-0.75,2.75-1.2966,1.1985zm456.34-2.5937-0.9092,0.33997zm-458.31,0.0937-2.5154,1.4493zm-335.38,0.5-2.6481,1.1825zm340.06,0.28125-1.623,1.7668zm652.88,0.0625,1.6268,0.88968zm-175.75,0.0312-0.9918,0.30228zm174.94,0.28125-1.4398,0.43611zm-10.187,0.125,0.548-0.0901zm-7.6564,0.0625-1.1393,0.25605zm-973.59,0.125-1.5921,1.4065zm-4.7188,0.125zm975.37,0.625-0.5071,0.59468zm43.125,0-1.9293,1.7115zm-1168.5,0.31265-0.65258,0.36884zm954.16,0.5-1.7332,2.0618zm114.28,0.25zm-900.63,0.1875-0.24453,0.2053zm985.47,0.15625,0.9724,0.70547zm-662.75,0.0312-1.0057,1.2591zm681.06,0.21875,2.2785,0.56387zm-1004.3,0.4688zm-21.406,0.125-0.68228,0.20762zm-5.6562,0.25-0.86983,0.46042zm916.91,0.0625-0.01,0.77835zm-914.5,0.0312-0.67175,0.347zm-137.59,0.0937-0.79286,0.7271zm945.37,0.0937zm231.09,0.3125zm-19.656,0.2189,0.4766,0.0767zm-1018.6,0.28125,0.26384,0.25846zm813.31,0.65625,0.31,1.9042zm203,0.125-0.9313,0.13608zm-993.62,0.59375-1.2346,1.8427zm891.44,0.15625zm-916.44,0.5625-1.0431,0.75699zm2.25,0.15625-0.66601,0.53926zm-1.4375,0.0625-0.56771,0.73147zm-170.59,0.53125-1.078,0.0374zm180.38,0.34375-0.71526,1.0595zm-10.812,0.0312-1.5565,0.66452zm-172.94,0.0312-1.2382,1.0347zm1.5,0.40625-0.93177,0.32272zm2076.9,0.0938zm-1904.7,0.0937-1.1364,0.626zm801.66,0.21875c-17.506,6.9872-18.058,42.453-18.589,31.584,15.92,4.5609,42.675-30.486,18.589-31.584zm180.28,0.21875-1.1274,1.0198zm2.25,0.0625,3.0656,1.1821zm-1153.9,0.19zm180.72,0-1.2706,1.7667zm-200.56,0.0625-0.6638,0.25974zm190.5,0zm-168.25,0.0625-1.9179,1.4106zm1892.9,0.28125zm-1723.2,0.0937-0.73963,0.87954zm-185.32,0.23l0.35402,0.30612zm1905.8,0.5-0.867,1.122zm-1891,0.34375-0.78533,0.7366zm1084.2,0.16l-0.269,0.48537zm-1111.9,0.03zm1123.8,0.0625-2.2038,0.8738zm-134.03,0.25,0.1048,0.16203zm108.06,0-0.4678,1.064zm-891.22,0.0937-1.1437,0.37497zm902.66,0.0626,1.032,0.94682zm-1101.2,0.0625-0.67224,0.37504zm188.53,0.40625-0.64266,0.72405zm1917.4,0.46875zm-1011,0.15625,0.3973-0.0304zm-892.72,0.34375-0.37816,0.91673zm0.875,0.34375-0.90609,0.20549zm784.44,0.0625-0.7815,0.28689zm194.25,0.1875-0.049,0.28844zm-983.16,0.84375-1.2256,0.70722zm-205.78,1.1562-0.30624,0.34562zm1958.7,0.65625c13.93,28.897,71.329,102.2,42.747,42.845,15.526,12.465-39.97-39.249-42.747-42.845zm-961.25,0.125-0.888,0.68816zm176.72,0.0937,1.1474,0.10558zm-159.88,0.1875-1.0587,1.3541zm174.31,0-1.5836,0.1302zm-196.84,0.0937,2.1746,1.472zm-1011.3,0.4376-1.6664,1.1394zm1018.7,0.15625,0.5828,0.46182zm-787.62,0.25-1.1359,0.25241zm785.28,0.125-0.718,0.76892zm-1019.9,0.125-0.80916,0.77631zm211.91,0.4375zm-2.1562,9.6875,1.0333,0.0205zm813.59-9.5312,0.2294,0.57529zm-1018.2,0.15625-0.88206,0.0731zm-2.5,0.1875-0.44777,0.34606zm224.84,0.15625-1.6034,1.3338zm1.625,0.0312-0.56275,0.77227zm-235.53,0.5zm1006.8,0.28125,0.8142,0.14588zm-1004.9,1.1562-1.2932,0.81473zm678.25,0.0937,0.81007,0.73263zm-447.47,0.28125-0.8928,1.108zm-2.8438,1.3438zm-243.09,0.5zm246.44,0.15625-0.82191,0.38356zm5.8438,0.21875-1.933,1.5472zm4.8438,0.625-0.0375,0.66869zm-8.25,0.40625-0.11713,0.62876zm929.62,0.0937,0.1791,1.135zm-610.59,0.1876-0.15776,0.6404zm499.91,0.21875-0.5938,0.0891zm-818.56,0.125-1.2671,1.4951zm308.78,0.78125zm-305.75,0.0312-0.27873,0.91034zm904.25,0.3125,1.0817,0.22514zm-909.81,0.0313-0.60758,1.0675zm321.19,0.15625-0.47196,0.76439zm454.03,0.28125,0.654,0.34123zm-772.78,0.0625,0.19452,0.72869zm4.4062,1.875-3.5375,0.84093zm6.625,0.21875-1.0128,1.3017zm-30.25,0.375-0.70322,0.12231zm15.719,0.0625-0.47596,2.3101zm6.8125,0-1.8118,1.3191zm-22.031,0.71875-0.87286,0.35126zm18.531,0.71875-2.1997,1.6811zm879.66,0.3125-0.125,0.21527zm-875.94,0.25-0.89712,0.48277zm876.56,0.84375,1.1826,1.1551zm-873.47,0.46875zm-6.0625,1-0.47,0.65625zm-2.375,0.59375-0.74408,0.37529zm0.625,0.34375-0.79508,0.64082zm0.90625,0.15625-0.15882,0.48098zm-20,0.125-0.58538,0.66824zm900.44,0.28125-0.3142,0.37222zm-562.91,0.15625-2.0636,1.0921zm-318.66,0.28125-1.4252,1.9093zm862.94,1.9062,1.3686,0.71106zm-1.0625,0.78125,0.8698,0.30963zm-863.62,0.21875-1.2208,1.7726zm472.03,0.71875c-58.838,31.807,6.8718,40.512-0.56432,37.873,30.967,8.2221-27.24-39.503-0.83772-18.793-12.945-10.999-9.4871,1.1473,1.402-19.08zm2.875,29,1.9146,0.22681zm-469.78-25.062-2.5122,0.55418zm1858.2,1.9062,0.6577,0.51245zm6,0.46875,0.996,1.532zm-1875.2,0.0625zm11.938,3.9062,1.0101-0.14782zm-2.9688-3.8125-1.2637,0.52923zm2.4375,0.21875-2.2891,1.1056zm853.03,0.25,0.6579,0.0894zm-386.31,0.0312-0.44867,0.7361zm-469.09,0.15625-0.42328,0.25094zm854.59,0.0625-1.0458,0.21634zm1009.9,0.0937zm-1038.1,0.0937-0.2634,0.7111zm-829.84,0.5939-0.4544,0.36655zm4.2188,0.59375-1.852,0.37968zm855.84,0,0.8354,0.54642zm-851.09,2.5-0.95139,1.9342zm2.4375,0-0.29199,0.72803zm1.2188,0-0.80578,0.50748zm-2.375,0.8125-0.46035,0.83228zm401.03,2.3125zm-414.94,0.34375-1.4496,1.982zm13.562,0.71875,1.3613,1.9939zm4.0312,0.21875-1.0338,0.44203zm464.28,0.25-0.69625,0.63951zm1389.1,0.75,1.0299,2.4435zm-1392.1,0.15625-1.9856,0.78637zm-467.62,0.34375,0.17728,0.68888zm2.6562,0.65625,0.36639,0.19896zm6.4375,0.0312-0.67139,0.12614zm-0.25,0.90625-0.70634,0.55279zm-18.781,0.0625-0.46884,0.5805zm826.03,1.1562-0.2605,0.58642zm-825.25,0.21875-0.0617,0.70997zm470.62,0.3125-0.58335,0.59815zm1399,0.18755,0.5629,0.94671zm-1619.3,1.47c31.087,20.536,51.638,42.736,9.3422,44.411,16.202-50.217-59.666,58.44-24.495-9.8495,87.903-24.189-76.809-5.216,12.034-30.761l3.1191-3.8007zm-236.69,0.0625,0.86009,0.53997zm-0.28125,0.5-0.20397,1.0873zm1856.2,0.125-0.3876,1.355zm-1506.5,3.82zm1504.9,2.9062,0.592,0.25554zm-1463,0.84375-0.12739,0.85254zm-0.28125,0.8125-0.83584,0.79117zm1464.1,1,0.2604,0.47678zm-1444.2,1.375zm48.969,0-1.2461,1.5421zm-102.09,1.4688,0.30665,0.14339zm444.72,0.59375,0.8556,0.5657zm-444.31,0.21875,0.16882,1.0625zm453.03,0.75,0.872,0.34435zm274.78,0.25,0.1984,0.0179zm-720.66,1.0938-0.3022,2.7395zm804.94,0.0937c21.003,15.162-5.5502,32.619,27.846,65.892,20.199,45.073-44.296,11.108-30.068-13.244-18.407-17.152-36.993-43.688,2.222-52.648zm-727.25,0.28125-0.18522,1.6215zm-51.5,0.21875zm417.81,0.65625,0.4415,0.32965zm-462.37,5.75-1.6195,2.1358zm1499.9,0.69zm-928.91,4,0.2804,0.5712zm-556.16,0.15625,0.5292,0.55693zm-18.938,0.1875-0.958,0.80461zm64.5,1.0938-0.25849,0.36395zm1432.1,0.46875zm-46.594,0.21875c7.5886,33.973,2.2278,34.922,35.739,19.75-6.3887-12.854-26.419-7.6591-35.739-19.75zm-572.81,0.25-8.7931,2.298zm-194,0.5312,0.351,0.91542zm-691.81,2.8438-14.193,0.41863zm872.97,0.875,0.3275,2.5169zm-901.78,2.0938zm935.25,1.4062,1.5316,0.94996zm586.87,0.375zm-892.03,3.1875,0.8089,0.72615zm-524.56,1.5-1.7943,0.41592zm836.56,0.625zm12.438,2.2812,2.807,0.28644zm-158.62,0.4375,0.8372,0.0946zm-159.59,0.78125,1.0353,1.4015zm167.62,1.2812,0.9533,0.35767zm-834.25,1.9375zm1456.4,0.0312,0.089,0.98617zm-610.19,0.53125zm-233,0.28125zm843.28,0.8125-0.637,0.12933zm-780.69,0.15625,0.2492,1.5505zm777.16,1.4688,0.4969,0.17439zm-594.75,0.15625,0.2895,0.37938zm-885.34,0.1875zm711.34,0.34375-1.4172,1.9691zm177.81,0.34375,1.6111,0.52191zm60.125,2.2812zm-56.25,1.5312,0.2547,0.13414zm-376.56,0.4375-1.4309,0.43177zm247.28,0.0937-0.3017,0.0749zm708.75,0.34375-0.5552,0.0928zm-711.66,0.5625-0.9615,0.45014zm-235.12,0.0625,1.2874,0.19026zm-1.0623,0.0937-0.2571,0.38459zm373.3,0.14l0.8513,0.23917zm-369.12,0.15625-0.1291,1.0136zm-11.375,0.25,0.4687,0.72417zm241.88,0.59375-0.7816,0.46377zm701.34,0.59375,0.9254,0.6809zm-931.72,0.3125zm228.91,0,1.7984,1.05zm701.31,0.34375-0.4159,0.83399zm-556.66,0.28125,0.8081,0.4692zm-5.2188,0.0937,0.2224,0.26763zm573.06,0,0.4825,1.0458zm-597.09,0.34375-2.5234,1.0298zm-127.16,0.5625,2.2944,1.3564zm11.125,0.0625-0.4353,1.3125zm701.53,0.0625-0.3077,2.679zm-554.5,0.0625,0.527,0.84463zm-36.688,0.0312-0.91,0.28807zm692.38,0.25c6.7339,27.296-6.3743,49.729-40.409,62.884,30.063-1.2988,49.647,2.3918,62.69-15.659-8.8647-17.336-0.9238-36.583-22.28-47.226zm-40.562,65.094c-14.348,14.446,29.25,36.603,0,0.00003zm-627.84-64.75-0.6081,0.23843zm-1.9062,1-0.374,0.0576zm-832.72,0.125-0.56275,2.0306zm832.66,0.375,0.5592,0.56107zm-12.969,0.21875,0.8615,0.31309zm-237.66,0.0937zm245.81,0.0312-0.2643,0.30879zm-125.75,0.0312-0.6187,2.1842zm119.31,0.46875,0.7973,0.17603zm-351.53,0.65625-0.8415,0.37893zm930.78,1.2812-1.0772,0.49019zm-1.7815,0.75-0.5567,1.1573zm-575.03,0.1875-0.068,2.0351zm-133.84,0.375,0.31,1.0513zm21.125,1.0625-0.1741,0.35524zm685.66,0.375-0.2549,0.28576zm-699.94,0.96875,0.1705,0.45184zm698.94,0.0625-0.3537,0.20973zm-1.5315,1.0312-0.8798,1.1902zm-695.16,1.0938-0.8762,0.94182zm-231.25,0.78125,0.3176,1.039zm372,1.0312-0.8775,0.18156zm-143.69,0.28125-2.0394,0.95338zm142,0.0937,2.6445,1.8559zm-298.75,0.375zm116.69,1.375zm176.25,0.25,1.2123,0.14717zm22.656,0.65625,1.3803,0.64153zm-22.437,0.0937,0.4058,0.53325zm-1.9064,0.21875-0.034,0.93818zm13.156,0.40625,0.7425,0.2451zm-4.3127,0.28125,0.5908,0.0972zm12.938,0.3125-2.0658,1.4113zm-556.28,0.28125,0.1914,0.63325zm531.69,1.0625,0.8241,1.2494zm-125.53,0.53125zm155.19,0.8125,0.7781,1.4717zm-8.5312,0.40625-1.8168,1.4325zm-164.81,0.25,0.3568,0.4025zm-365.63,0.4691,0.0615,0.70997zm519.66,0.25,2.3515,1.1824zm-157,0.28zm-214.16,0.0312-0.1905,0.76281zm390.84,0.5-0.6777,0.23354zm-168.19,0.0937,1.057,1.1372zm153.69,0.59375,0.3618,0.0353zm-13.281,0.28125,0.3961,1.0124zm-166.97,0.21875-0.2046,1.9875zm-339.56,0.21875,0.091,0.84941zm534.25,0.65625,1.1088,0.77279zm-541.66,0.0625,1.9222,0.99562zm-3.4375,0.8125,0.0817,0.62195zm387.97,0.28125zm-385.81,0.4375,1.0577,0.91265zm138.59,0.625,0.2801,0.5289zm209.22,0,0.778,1.3302zm-0.5623,0.15625,0.4729,1.9876zm169.5,0.84375,0.4271,0.18463zm588.38,0.46875-1.1435,0.83181zm-793.28,0.15625zm873.41,0.0312zm-807.4,2.54l1.2787,2.0407zm-359.88,0.71875zm330.34,0.21875,1.5733,1.4578zm43.25,0.6875,1.0484,0.55967zm-22.906,0.21875-0.08,0.37127zm20.406,0.8125-2.2407,1.2638zm-14.031,0.0625-0.331,0.78021zm4.375,0,1.0647,0.5252zm2.4689,1.5312,0.3558,0.72528zm1.6873,2.75-0.4737,1.4168zm8.75,0.0625,0.5298,0.83494zm-11.031,0.28125-0.1243,0.8463zm-359.44,1.0312,0.69195,0.37557zm371.97,0.0312,0.1231,0.3379zm-16.406,0.21875,0.4439,0.68873zm-221.25,0.75-0.3948,0.2939zm231.25,0.0625-1.0416,0.67977zm8.75,0.0312-1.9369,1.1603zm-133.56,0.5-0.8004,0.84425zm114.09,0.6875-1.0535,0.59387zm5.5,0.21875,0.1105,0.33159zm-3.3437,0.78125,0.6142,0.54763zm726.63,1,0.6951,0.62143zm-702.44,0.71875zm-37.594,0.5,0.1815,1.3269zm790.66,0.53125,0.1621,0.88773zm-1.125,1.7188,0.084,0.48477zm-693.41,1.375-0.7319,0.6348zm-65.375,1.2188-0.1012,2.4469zm-737.62,0.5625-0.75917,2.4271zm712.52,0.72zm78.031,0zm-796.53,5.1875-0.91176,0.52709zm1475.1,0.78125-0.1237,1.5534zm-5.625,0.59375,1.5521,1.3831zm-11,0.0625,0.1578,0.52117zm-923.97,0.78125,0.2778,1.0344zm1018.7,0.3125,0.3768,0.49779zm-71.344,0.78125,0.058,1.475zm-22.968,1.0938,0.7252,0.89994zm63.156,0.21875-0.5684,2.3494zm-4.6563,0.0625-0.4649,0.72633zm-54.5,1.375,0.648,0.25381zm53.156,0.125zm-34.375,0.65625,0.545,0.72025zm27,0,0.1594,0.50688zm-3.5,0.21875-0.092,0.3985zm0.7187,0.78125,0.1505,0.46229zm-0.2815,2.1562-1.0232,0.0795zm-18.656,0.8125-0.1714,0.39518zm-20.312,2.4375zm-1778.8,0.375,1.0795,0.74925zm1798.6,1.3438-0.1043,1.2859zm-2.0312,2.0312,0.4174,1.3381zm-1798.3,1,0.4005,0.9876zm944.59,0.875-0.063,0.87159zm-208.22,0.375,1.8408,1.0629zm1059.7,0.58l1.3746,1.1056zm-851.47,1.4062,0.1239,1.0128zm865.09,0.8125-0.8485,0.52847zm-2.5,0.25,0.8767,2.1848zm-690.84,0.28125-0.3726,1.0558zm-726.72,1.3438-0.78156,0.43769zm553.28,0.15625-0.6378,0.41826zm172.69,1.0625,0.018,1.222zm629.88,2.9375zm-1722,0.25,0.47095,0.65664zm57.969,0.0625,0.7481,0.0273zm1725.8,0.34375-0.2426,0.49364zm-1723.2,0.125,1.3496,2.0866zm-39.5,1.3438,1.9637,0.94431zm997.97,1.5-0.031,0.27406zm-972.72,0.28125-0.72183,0.33545zm195.12,3.75-0.55391,0.98601zm1554.7,1-0.01,2.8926zm-2.9375,3.3125,0.6417,1.2139zm-61.062,1.0312,0.2357,0.29363zm-1663.3,0.4375-0.0117,1.2859zm113.41,1.3437-0.65714,0.54491zm-94.531,2.5625,1.0239,0.11292zm126.84,0.75-1.5214,0.69468zm-132.25,0.53125-0.87282,0.88362zm79.375,0.4375-0.19994,0.48005zm-68.438,0.5625,0.60189,0.71655zm-23.438,0.0312,0.87376,0.86898zm-67.438,0.0312zm137.47,1.875-1.9959,1.335zm-128.81,0.78125zm-44.438,0.4375-0.36794,1.6952zm770.44,0.1875-1.6246,2.174zm-641.13,1.2188,0.17605,0.73211zm609.03,1.7188,0.23962,1.999zm29.25,0.78125zm-16.562,1.4062zm-475.84,0.0937-0.22656,1.9969zm1550.5,0.5002-1.7701,2.2405zm-1805.3,1.1562-0.80426,2.3246zm138.44,0.0625-2.0553,1.3672zm-28.125,1.0625,0.47543,0.86035zm611.81,0.5,0.1524,0.90191zm1080.3,0.0312,0.7555,0.30613zm-1068,0.3125zm1004.5,0.40625,0.9366,0.39349zm62.25,1.7812,0.5746,1.0657zm-1084.3,0.65625-0.51274,0.76184zm-604.41,0.9375,0.81889,0.90218zm1687.9,2.375-0.3632,0.33946zm-1686.8,1.9688,0.26519,2.0701zm159.88,2.4062zm987.69,0.5625,0.2264,0.48649zm538.03,0.375zm-1559.2,0.23l-0.15189,0.6985zm32.188,0.21875zm-31.688,0.875,0.2133,1.1389zm-126.06,1.125,0.48191,1.0586zm125.69,0.25,0.9294,0.24054zm1548.4,1.1562,0.4419,0.49535zm-1671.7,0.34375,0.99843,0.51409zm-91.781,2.3125-0.88404,1.2537zm97.5,0.15625,1.0758,0.17129zm1184.5,3.1562-0.08,1.1749zm-1028.2,1.4375zm1095.2,1.125,0.6729,1.0987zm378.1,1.1zm-1484.6,0.59375zm-241.84,0.71875,0.37818,1.5543zm17.844,0.21875,0.8219,1.3537zm229.75,0.15625,0.10602,0.28522zm-228.53,0.1875,0.30134,1.0208zm1220.1,0.5625-0.012,0.2836zm515.97,1.0312,0.6603,0.79358zm-515.06,0.125,0.1891,0.63685zm111.34,0,0.2196,0.64259zm-1130.5,0.8125-0.65544,0.31347zm-3.5,0.125,0.36884,0.65258zm42.594,0.65625,0.89589,2.4758zm1091.8,0.0625-0.3608,1.0687zm-113.47,0.6875,0.3231,0.91049zm-1249.1,0.34375,1.5921,0.92494zm1759,0.21l-0.5645,1.0131zm-3.4063,1,0.2841,0.96227zm-398.53,0.46875-1.04,0.68523zm-107.53,0.0312,0.2879,0.47889zm-1234.2,0.375,0.34269,1.2131zm240.03,0.0625zm1091.3,0.0312,1.6453,0.098zm6.8438,1.0313,0.905,0.0477zm-102.62,0.1875-1.1319,0.8348zm-971.59,0.46875-0.52786,0.67zm-3.5938,3.2812-0.2563,0.42067zm972.16,0.0937-0.5445,1.4944zm-980.94,0.2188,1.4296,1.4115zm5.3438,0.0937,0.6431,1.9718zm1241.5,0.59375,0.7122,1.9274zm-291.19,1.0312,0.9605,1.2877zm-953.03,0.375,0.66378,0.25977zm1246.4,1.7188,0.5584,0.7005zm-1288.5,0.59375c-64.756,13.947,26.609-1.8448,26.747,28.64,53.595,4.2182-16.835-23.718-26.747-28.64zm2.625,0.0625-0.75472,0.48299zm4.5625,1.3125-0.50379,0.16676zm1290.5,4.0938-0.3346-0.3356zm-296.19-3.0625,2.1457,0.2441zm-950.25,0.46875,0.78109,0.76846zm959.56,0.71875,2.4199,0.42387zm7.7186,0.0312-0.2617,0.38341zm-964.56,0.625zm1217.9,3.5312-0.5775-1.5264zm-1251.8-2.3436-0.28325,0.55318zm1.625,0.90625,0.65219,0.79621zm998.53,0,1.4017,2.0551zm-960.66,0.0625,2.2644,0.8383zm1203.9,0.5625,0.4974,0.68921zm12.656,0.3125-0.037,1.0464zm-1253.1,0.28125,0.3586,0.82524zm1278.9,0.78125-0.8201,1.1887zm-2.5312,0.4375,0.038,0.20502zm-1275.2,0.65625,0.47399,0.68395zm1274.4,0.25,0.2738,1.1888zm-1312.5,1.0625zm81.844,0.125,0.30813,0.70036zm954.66,0.34375-1.7368,7.3349zm-952.78,0.375-0.29267,0.49813zm-4.9062,0.0625,0.75026,0.15061zm1342.3,0.2l0.9912,0.53269zm-1336.8,0.53125,0.48957,0.86346zm-262.66,0.4375,0.52729,0.57283zm1602.7,0.28125,0.125,0.18079zm0.25,0.3437,0.5766,0.17437zm-1351.2,0.7813-0.2102,0.54556zm1237.7,0.90625-0.5882,0.89368zm-1237.9,0.84zm-103.75,6.3438-1.9862,1.9078zm62.156,0,0.52052,0.83587zm1001.8,3.6562-0.097,0.26862zm417.19,0.53125zm-1377,0.4375,0.19859,0.38166zm958.84,0.6875zm-960.72,0.40625c-28.385,22.3,17.302-10.961,25.297,4.8242-7.2466-8.1638-17.019-0.21309-25.297-4.8242zm-108.53,0.46875-0.35344,0.82476zm117.81,2.7188-0.0784,0.75734zm1451.3,1.5938,0.3602,0.53944zm-1522.2,0.21875-1.7428,0.3208zm70.719,1.0312-0.89201,2.5092zm1456,2.0625-0.373,1.2443zm-525.75,0.0937,0.7464,0.62118zm521.59,0.96875,0.2485,0.21409zm-1601.9,0.875-1.9289,0.63216zm204.84,0.3125,0.37047,0.20859zm1393.2,1.0938c-28.905,40.767,60.39,57.79,12.515,37.473-10.432-11.875,17.739-36.415-12.515-37.473zm-1412.9,0.71875zm-82.031,0.21875zm45.062,0.84375,0.26744,1.4067zm52.125,0.3125-0.39747,0.21748zm14.25,0.84375-0.78448,0.73723zm-43.219,0.875,0.9686,0.17153zm25,0.0625-0.8333,0.21336zm17.469,0.40625-0.10496,0.50093zm-79.75,0.21875,0.35553,0.15091zm-116.25,0.9375-0.7207,0.64133zm-13.656,1.2812-0.25397,0.12189zm196.03,0.5,0.93216,0.0571zm22.562,0.84375,0.28553,0.5229zm-196.12,1.2812-0.50538,0.81277zm948.5,0.34375-1.6548,0.72607zm512.66,0.0937,1.2612,1.0914zm-470.16,0.0312,1.4203,0.87893zm-802.62,0.8126,0.71271,0.74641zm1216.9,3.7812-1.1464-1.1904zm-390.5-3l1.6035,1.909zm-1042.2,0.34375,0.59668,0.66701zm1491.7,0.3125,1.4672,2.182zm-1274.4,0.35l-0.077,0.78608zm6.2812,0.21875-0.0732,0.83448zm-206.81,2.6875-0.19145,0.98871zm557.81,2.4375-1.3715,0.15615zm-7.6564,0.5-1.1248,1.7551zm-341.25,0.0625,0.21457,1.8549zm-219.75,0.0937,0.45897,0.37629zm32.125,0.46875-1.9312,0.78862zm1459.6,0.875,0.5188,0.31874zm-1274,0.21875zm1212.8,0.59375-0.144,0.24795zm-1430.2,0.9375-0.27044,0.26514zm-7.0625,0.34375,0.85921,0.12439zm227.66,0.9375-0.27914,0.43444zm1207.8,1.5,0.039,2.0051zm-1412.6,1.0312-0.82458,0.50994zm202.66,0.5625,0.89229,2.7427zm-232.47,3.3438,0.24078,1.1922zm1440.2,0.125-0.031,0.2912zm179.53,1.5,0.504,2.4644zm-179.37,0.90625,1.8604,3.1704zm-1376,0.375-0.53375,0.30909zm169.78,0.21875zm-179.53,0.5-0.65736,0.36395zm1567.5,0.15625,0.013,0.33032zm-1561.6,0.46875-1.2836,0.2739zm-4.625,0.25,0.67384,0.33071zm1567.4,0.28125-0.234,0.0548zm-631.22,0.8125-0.7847,0.39569zm4.0937,0.5,2.1202,0.49552zm-975.41,0.28125-0.45963,0.37474zm31.281,0.5,0.0428,0.81635zm-33.219,0.96875-0.0189,0.60823zm-0.53125,1.0625-0.60002,0.839zm1602.1,0.0625,1.5849,1.1598zm-1570.5,0.28125-1.4041,1.1245zm-25.531,0.0625,1.1731,1.1105zm1613.3,0.9375zm-1402.6,0.15625-0.2213,2.3446zm-219.62,0.46875-0.99138,1.0226zm13.719,0.0937,0.586-0.13113zm978.78,0.4688,1.7041,2.3071zm-976.06,0.3125,0.14482,0.51813zm11.25,0.3125-1.4698,0.38573zm1563.9,0,1.228,0.97787zm-1026.7,1.1875-0.94886,0.8116zm821.66,1.1875zm208.72,0.34375zm10.719,0zm-1039.7,0.3125-1.8405,0.79335zm-348.62,0.90625-0.22709,1.534zm-193.59,0.3125-0.56418,0.36822zm205.09,0.40625,1.0317,1.8634zm1392.7,0.25-0.2615,0.30199zm1.0937,0.71875,0.9324,0.0581zm-1064.8,0.0625,0.5163,0.14462zm868.41,0.34375,0.2965,0.96998zm187.69,0.0625,1.8989,2.3008zm-615.25,0.8125,1.1533,1.492zm385.59,0.71875,0.077,0.7494zm74.219,0.0312,0.8191,2.2227zm-894.09,1.0312-1.4306,1.6564zm523.19,1.125zm531.81,0.46875,1.0432,1.914zm-11.688,0.0312-0.2633,2.9612zm-96.938,0.125,0.7632,0.36852zm-83.281,0.0312,0.1744,1.3946zm-425.34,0.4064,1.3857,1.1119zm606.75,0,0.339,0.34769zm7.4063,0zm-1466.5,0.0625,0.55629,0.75989zm1480.4,0-0.3596-0.0721zm-1.094,0.25zm-200.5,0.3125-0.3032,0.71539zm182.44,0.0937,0.8377,1.0242zm-604.97,0.21875-0.6669,0.40807zm418.72,0.75-0.088,0.78384zm-868,0.0625-0.97043,0.28089zm879.13,0,0.1913,0.73759zm-1279.8,0.1875,1.9145,1.9846zm1435.2,0.28125zm-1429.4,0.2188,1.0761,1.5582zm1263.5,0.34375,0.5033,0.48785zm-1212.2,0.21875-0.45261,1.278zm1174.7,0.5,0.1287,0.57784zm69.781,0.3125,0.6063,1.0275zm-29.25,0.5,0.9657,1.3178zm-41.531,0.71875,0.6593,0.24758zm207.34,0.21875-0.041,1.0772zm13.031,0.34375zm-14.969,0.0937,0.078,1.0907zm-1453,0.625-2.3728,1.276zm1298.3,0.15625-0.078,0.70467zm-12.313,0.0625,0.3862,1.0849zm2.0938,0.28125-0.1513,2.4547zm1.1876,0.21875,1.0165,1.8271zm31.438,0.15625,0.2609,1.0843zm166.16,0.46875,0.6558,1.019zm-34.844,2.0625-0.2369,0.38545zm-127.94,0.5,0.1969,0.66652zm125.56,0.125zm-1368.3,0.5-1.2524,1.1747zm1403,0.875zm-2.625,0.125-0.4019,0.93269zm-1590.6,0.125,0.38874-0.0343zm165.09,0.25-1.7695,2.2395zm-64.812,0.21875-0.97142,0.64464zm873.66,0.59375-1.0642,0.1896zm-966.81,0.15625-0.7322,0.22764zm968.12,0,1.1241,0.2613zm612.03,0.65625zm-1433.1,0.125-0.61324,0.58994zm1242.3,0.0625,0.8437,1.1466zm-42.906,0.5625-0.2057,2.5632zm-1167.9,0.5938zm1249.8,0.59375-0.037,0.31055zm147.53,0.4375-0.563,2.2463zm14,0.1875-0.9413,0.62866zm-134.66,0.21875,0.3676,1.6284zm100,0.46875-0.8606,0.86672zm-98.782,0.8125,0,0.71266zm-1290.5,0.28125,0.65587,1.0994zm1268.4,0.375,0.2879,2.4736zm164.59,0zm-12.25,1-0.2748,0.50125zm-134.91,0.65625,0.9942,0.83708zm137.25,0.75zm6.4375,0.5625,0.8307,1.0371zm-204.62,0.34375-0.5367,0.92515zm57.531,0.4375,1.1828,1.3282zm153.81,0.0625,0.439,2.0728zm-350.12,1.5938zm345.66,0c-23.067,23.525-27.463,15.368,3.5229,34.11-3.4637-12.816,18.882-12.488-3.5229-34.11zm8.4685,25.531,0.315,0.4409zm-202-25.312,0.5015,0.36782zm197.19,0.5,0.2233,0.88745zm-15.875,0.9375-0.2548,0.65748zm-1572.5,0.375,0.46849,0.0743zm1391.3,0.0625,0.067,0.95952zm-1391.9,1.0938-0.47913,1.797zm4.6562,0.125,0.23654,0.58241zm0.5,0.71875,0.65539,0.31347zm1566.8,0.4375-0.121,1.3198zm-234.81,0.5-0.1677,0.63338zm243.09,0.0312,0.2288,0.6471zm-1412.7,0.4063-0.68772,0.46744zm0.78125,0.0625-0.50509,0.63776zm-168.78,0.875,1.075,1.1323zm167.69,0.875-0.66952,0.46201zm383.09,0.9375,0.082,0.26562zm-384,0.375-0.8624,0.60027zm-0.53125,1.0625,0.11975,0.26472zm384.94,0.1875-0.4225,0.95594zm-383.87,0.125,0.62442,0.0488zm-0.75,0.53125-0.71379,0.33923zm389.97,0.375,0.219,0.29433zm787.66,0.1875,0.062,0.70996zm-790.72,0.21875,0.3376,0.26161zm16.063,0.0937,1.2619,0.39627zm-539.06,0.40625-0.21531,0.80595zm11.406,0.875,0.51665,1.3724zm507.84,0.3125-0.1759,0.30225zm9.0938,0.0312,0.2291,1.4016zm-555.09,0.4375-0.10376,0.33313zm1520.8,0,0.1804,0.69171zm-180.81,0.5-0.035,0.78128zm36.375,0.21875,0.3959,2.7064zm-768.25,0.0625-1.1997,1.6438zm770.03,0.59375,0.4726,0.96287zm-746.09,0.15625,0.055,0.98949zm886.78,0.21875,0.1538,1.3438zm-952.47,0.28125-0.7672,0.13632zm-10.75,0.0312,0.051,0.78557zm-386.31,0.0939-2.1364,1.6685zm1169.7,0.0937-0.01,0.49906zm-773.31,1.4063-0.064,0.741zm-19.344,0.21875-0.6673,0.80608zm101.91,0.21875,0.2367,1.0823zm601.97,0.75,0.5564,1.1995zm-1245.7,0.5625-0.30842,2.0633zm1377.6,0.0625,0.5543,1.1096zm-817.03,0.28125-0.2425,0.30044zm-2.4064,0.125zm-553.03,0.125-1.1346,0.67911zm639.16,0.8125zm-88.188,0.25-0.5459,0.9274zm781.03,0.375-0.2975,0.89219zm221.94,0.0937,0.5634,0.51644zm-43.031,0.59375-0.3937,1.3783zm-1.375,0.15625-0.3665,0.65078zm-176.94,0.84375,0.6372,2.8675zm-1175.4,0.1875-0.86466,0.0172zm1419.4,0.3438,0.078,1.0591zm-55.438,0.84375,0.098,0.39819zm-927.09,0.3125-0.5893,1.8972zm35.906,0.15625,0.1406,1.9748zm878.31,0c-24.544,33.577-91.829,65.83-28.853,88.543,26.626,17.511,52.087-36.099,35.894-54.658,3.6368-20.574,21.875-14.499-7.0409-33.884zm-56.312,61.25,0,0.71266zm-1294.2-61.13l-0.8835,0.61139zm464.31,1.5,0.8854,1.9386zm-468.66,0.125-0.67066,0.44046zm1394.7,0.65625zm-170.38,0.21875,0.057,0.99015zm4.25,0.0937-0.2409,0.95814zm1.75,1.4375,1.2782,0.37764zm-831.22,0.46875,1.0347,0.18417zm826.72,0.0937-0.7584,1.287zm157.91,0.8125-0.053,1.0186zm-912.53,0.25,0.7788,0.55444zm-68.906,0.34375,1.6087,0.56655zm823.47,0.34385,0,0.71653zm8.281,0.0625,0.9119,0.44595zm-793.47,0.6875,0.5358,1.5816zm-443.25,0.46875-0.71571,0.85606zm1238.3,0.0312,0.028,0.90229zm-769.75,0.25,1.4981,0.38999zm927.28,0.15625,0.8334,0.27717zm-5.5935,0.0937,1.3603,0.90241zm-982.91,0.0312,0.8409,0.85922zm834.66,1.3125,0.4821,0.36074zm-48.25,0.15625,0.2728,0.48645zm46.844,0.46875-1.266,0.84304zm3.9065,0.0312-0.6074,0.51053zm-834.09,1.4062-0.088,2.6666zm785.06,0.15625c9.0475,22.699,93.512,143.44,72.606,70.008-7.9091-27.415-42.641-55.079-72.606-70.008zm36.469,1.625-0.1883,1.3095zm191.78,0.5625-0.033,0.20843zm-77.625,0.25,0.037,0.46926zm37.969,0.21875-1.7745,1.6419zm-950.47,0.46875-1.5963,0.42183zm11.5,0.84375-0.6855,0.35045zm933.69,2.4375-0.079,1.6856zm-8.0628,2.0312,1.5053,0.0806zm64.219,1.4375,0.095,3.3015zm-91.562,0.0312,0.1508,1.9073zm10.438,1.125,0.4162,0.17376zm7.156,0.15625-0.4144,0.31763zm-5.531,0.0625,0.8451,0.33066zm-1479.5,0.1875-0.004,0.67944zm1489.5,0.59375,1.6416,1.4635zm-24.844,0.46875,0.7122,0.57324zm-1465.7,0.1875,0.58298,0.69394zm1418,0.375zm72.468,0.3125,0.1798,0.48714zm68.656,1.1562,0.559,0.97594zm-84.406,1.5,0.05,2.1158zm-815.12,0.28125zm890.94,0.71875,1.152,2.1648zm-58.938,0.90625,0.6056,0.78138zm-1.406,1.1875,0.2785,0.80661zm-1.1875,0.90625,0.3295,0.19932zm-1489.6,1.5-0.58864,0.56759zm1474.3,0.96875-1.5806,0.52137zm-74.344,0.25,0.2577,1.2332zm24.094,0.28125-0.084,0.71886zm-99.469,0.65625zm63.906,0.375-0.3181,0.76629zm54.375,0.9375,0.5611,2.3927zm107.62,0,0.1693,0.33987zm24.344,1.0625zm-1579.8,0.14l0.27163,0.8264zm1576.5,2.0938-0.1946,0.56097zm-891.09,0.4375,0.032,0.47438zm817.88,0.0625,0.4834,0.83108zm-162.91,0.875,0.4402,0.67673zm-1128.8,0.0312,0.0945,0.34558zm1363.7,0.25zm-1363,0.40625,0.0811,1.1962zm1161.4,0.375zm61,1.9375,0.7733,1.0511zm117.81,1.5625c-53.881-24.581-49.2,102.67-32.53,38.449,14.973,37.492,24.591-37.694-4.6928-24.407,6.8154-13.007,39.422,10.012,37.223-14.042zm-201.84,0.0937-0.4659,0.26689zm26.531,0.4375,2.3842,1.7306zm81.032,0.43755-2.4043,1.0119zm2.75,0.375,1.601,1.2078zm-776.78,0.0312-0.021,2.1896zm870.75,0.0312-0.9826,1.0036zm-213.12,0.40625zm126.97,0.25-1.7507,0.87494zm-32.031,0.0312,0.8387,0.73119zm-46.406,0.15625,0.9398,0.45783zm-11.719,0.2189,1.1146,2.431zm14.125,1.8438-0.3611,0.96228zm3.25,0.25zm58.062,0.0937-0.9515,0.58209zm-72.937,0.21875zm6,0.1875,0.4581,0.38374zm-1171.8,0.4375-0.15012,0.72601zm1231.7,0-1.803,0.61703zm-6.75,0.15625,0.9925,0.61133zm-764.12,0.15625,1.074,0.24619zm775.84,0-0.9133-0.0206zm-60.406,0.0625-0.2784,0.38222zm1.875,1.0625-0.078,0.40421zm-1179.2,0.0313-0.51599,0.68489zm1356.4,0.25,0.4384,0.59227zm-182.75,0.0937,0.6526,0.36884zm-0.4375,0.125,0.6447,1.0164zm183.47,0.71875,0.2801,0.74263zm-184.97,0.5,0.4722,0.97775zm-526.84,0.21875-0.7078,0.86276zm-644.88,0.0938-1.0515,1.8188zm-2.0938,0.6875-0.28899,2.6138zm1359,1.75,0.1848,0.55561zm-1665.2,0.125-0.15615,0.39697zm1004.7,0.1875zm-696.16,0.0312zm642.69,0.8125-0.19,0.74566zm539.34,0.21875,0.6763,0.81603zm-1185.7,0.25,0.35905,0.97329zm1140.4,0.0625,0.3553,0.48965zm44.281,0.0937,0.4001,0.61132zm175.59,0.65625,0.2077,0.68221zm-1672.4,0.2188zm310.31,0.0312-0.31238,0.35845zm8.8125,0.0625zm1131.1,0.40625,1.2429,2.0288zm47.281,0zm189.75,0,1.1186,0.97542zm5.8122,0.0937,0.1526,0.72133zm-1381.9,0.0626-1.6699,1.6094zm1386.5,0.0625zm-1390,1.0938-1.2144,2.1919zm-303.25,0.21875,1.3519,0.93469zm1486,0.6875-0.119,0.61417zm180.41,0.125-0.3984,2.0598zm-1671.9,0.0312,0.41655,1.0593zm1452,0.0625-0.2474,2.3581zm-1142.3,0.2188-0.38844,0.85004zm1364.8,0.0937zm-42.656,0.0937-0.1614,0.37785zm-133.53,0.1875zm214.22,0.0937c-1.8996,23.579-1.9542,26.965,40.832,45.081,17.18,63.102,48.568-9.0731,80.74,40.391,13.988-11.107-39.881-79.867-85.297-73.235-31.365,36.835-12.191-10.958-36.275-12.237zm-114.34,0.125-0.065,0.73735zm-1286.7,0.0625-0.96726,1.2512zm-1.2812,0.21875-0.51054,0.81754zm1320.4,0.0625,0.074,0.64576zm67.532,0.0937-0.8057,0.66992zm-1688.8,0.6875zm298.31,0.1875zm3.2188,0.53125-1.3062,2.1441zm24.25,0.0937,0.13962,0.65374zm1337.1,0.1565,0.1072,0.82505zm62.125,0.28125,2.1264,1.2782zm-1717.3,0.34375-1.4761,1.8925zm294.12,0.4375-0.41206,0.59592zm1388.5,0.28125-2.3241,0.99423zm-1389.6,0.875-0.97294,0.98663zm1390,0.21875zm-244.59,0.21875zm275.09,0.21875,0.039,0.92654zm-193.16,0.28125zm164.44,0.15625-0.052,0.66713zm-742.63,0.0312-1.1066-0.16724zm55.094,0.65625,0.952,1.2867zm-684.75,0.0312,0.28288,0.71127zm1362.7,0.5626-0.6194,0.33546zm-52.281,0.21875zm34.625,0.0625-0.1514,0.32993zm-32.469,0.21875,0.1276,0.69986zm-1633.7,0.3125,0.0651,0.44871zm347.91,0.1875-0.15133,0.79466zm1318.8,0.96875zm167.69,0.0625,0.6807,0.84095zm-1542.5,0.21875-0.75957,0.42189zm1.625,0.53125-0.83055,0.87043zm1430.4,0.0937,0.6408,0.0935zm-223.59,0.3125zm22.969,0.25-0.088,0.52401zm-1174.2,0.5313,0.31938,0.24096zm1377.6,0zm-84.406,0.4375zm44.375,0.28125zm-52.656,0.0625-0.277,0.72806zm-111.97,0.0937,0.2725,0.0369zm195.06,0.40625-0.3615,1.0919zm-67.532,0.3125zm-862.94,0.96875zm1026.7,0.43755zm4.094,0.8125,0.02-0.37537zm0.062-0.71875,0.1067,0.22345zm-163.81,0.125,0.1326,2.8491zm64.281,0.34375,0.1456,0.49172zm-928.16,0.125,0.47,1.0832zm662.53,0.125,1.3011,2.0937zm-1094.8,1.9375-0.15133,0.40555zm1463,0-0.3753,0.74482zm-850.78,0.84375,2.0622,1.3383zm869.03,0.25zm-1757.6,0.21875,0.31347,0.65544zm-0.0937,0.5-0.0332,1.1289zm1374.1,0.125,0.8865,2.2969zm59.625,0.53125zm329.16,0.5625zm-1763.9,0.4375-1.3423,2.0566zm271.44,0.5-0.49435,1.979zm1500.6,0.28125,0.057,0.71562zm-171.34,0.40625zm-900.84,0.0312,0.9929,0.45227zm677.41,0,0.7584,2.999zm51.844,0.15625,0.1518,0.6985zm259.31,0.0312-1.1251,21.656zm-261.09,0.59375-0.055,0.5459zm161.34,0.15625-0.4919,0.74735zm183.81,0,0.3135,0.65544zm-8.6875,0.0626-0.5648,0.34735zm-865.28,0.90625,0.5382,0.85207zm878.28,0.25,0.3546,1.2671zm-198.09,0.0625zm-877.81,0.0937,0.2231,0.98182zm885.91,0.7188,0.1753,0.71182zm-1.094,0.9375,0.313,0.44855zm-86.781,0.0312zm-796.81,0.21875,0.063,1.9874zm798.44,0.9688-0.2318,0.85845zm45.781,0,0.062,0.70997zm-647.78,0.4375,1.1807,1.5536zm694.81,0.28125,0.7049,0.76124zm-894.41,0.15625-1.2958,1.1zm892.37,0.0625-1.9686,1.4088zm0.9378,0,0.2,0.39227zm-1579.6,0.75-0.37646,0.94459zm688.28,0.71875,0.729,0.10598zm-689.19,1.7188-0.78484,2.367zm1623.8,0.34375,0.2021,0.43479zm-21.156,0.34375,0.4317,0.49398zm-63.594,0.15625,0.4572,1.9513zm63,0.78125,0.6974,0.38975zm15.5,0.3125,1.2782,1.1788zm144.19,0.5625zm-1773.9,1.1562-1.5059,0.77899zm1551.3,0.84375zm65.312,0.21875,0.2505,0.72439zm109.59,0.875-0.326,1.1751zm-1014.8,0.625,0.2849-0.0497zm836.69,0.15625zm205.12,0.3125-0.4946,0.45629zm-1047.2,0.375-1.0857,1.1538zm-700.87,0.15625,0.13001,0.24951zm909.47,1.6875,0.7579,2.7166zm-906,0.28125-0.77843-0.008zm698.5,0.9375,0.2783,2.8256zm835.63,0.21875-0.3673,2.5049zm191.38,1.0625,0.6414,1.8502zm-179.56,0.4375,0.5028,0.37127zm-162.88,0.53125,0.7785,0.82324zm236.44,0.0625zm113.69,0.5,0.1425,0.71247zm-103.28,0.375zm153.62,0.125zm-236.38,0.28125,0.8482,0.36326zm184.25,0.28125,0.7696,1.8226zm-115.28,0.625,0.2333,0.33958zm-0.719,0.65625,0.6056,1.9026zm-152.44,0.6875-0.3573,0.66635zm-559.78,0.125zm499.47,0,0.3137,0.65538zm119.81,0.375zm26.719,0.9375,0.2152,0.45254zm-136.81,0.1875c2.1428,37.215,110.48,15.267,26.944,8.5956-9.6629-2.4189-16.535-8.9077-26.944-8.5956zm266.5,0.71875-0.1147,0.70305zm-52.656,1.4688zm5.4687,1.2188,0.021,0.77035zm-1.2187,1.2188,0.029,0.40183zm-224.5,0.71875-0.675,0.49158zm224.5,0.5-0.1177,1.1274zm166.03,0.15625zm-136.16,1,0.7939,0.92579zm-178.06,0.9375,0.9543,0.44078zm-11.094,0.28125zm51.906,1.3125,0.2631,0.57588zm-48.313,0.34375,0.5742,0.53593zm109.03,0.0937-0.3752,0.55179zm94.468,0.0312-0.2033,2.1517zm-71.437,0.375zm0.7812,0,1.2121,0.52386zm-131.41,0.15625,0.5779-0.12582zm48.125,1.1562,1.0171,0.0902zm135.25,0.96875zm-56.844,0.25-0.9115,0.47564zm-2.0312,0.78125,0.3877,0.11288zm-26.344,0.0937-0.3104,0.94724zm236.59,0.125zm-14.188,0.4375,0.4461,2.4243zm-229.38,0.28125zm-134.81,0.65625,0.9169,0.29373zm267.19,0.5,0.4977,0.88998zm-108.72,0.5,1.0129,1.6115zm109.25,0.21875,0.373,0.71974zm99.594,0.28125zm3.4065,1zm-105.19,0.6564-0.2878,0.23971zm-222.69,0.375zm26.188,0.0312zm75.281,0.0312,1.3578,0.44243zm-37.781,0.0313zm-28.531,0.25-0.3683,0.66729zm41.031,0zm51.031,0-1.9721,1.1493zm96.032,0-0.4609,0.29726zm-199.41,0.0937-0.4616,1.0018zm61.25,0.0625-0.6299,1.0295zm15.344,0.15625,0.2997,0.25408zm9.5,0.125,0.2496,0.3448zm-38.875,0.15625zm-56.5,0.0625zm59.75,0zm29.5,0,0.3508,0.25913zm-37.125,0.375-1.1305,0.86873zm29.281,0.5zm255.47,0.0312zm-129.91,0.40625,0.5263,0.67074zm0.8122,0.71875,0.5821,0.32186zm-1.4685-0.46875,0.3028,0.83391zm58.125,0.25-0.481,0.95319zm-0.375,1.3438-0.332,0.47092zm-0.062,0.53125-0.1094,1.7007zm-240.81-1.75-0.231,1.6139zm27.718,0.0937-0.9678,0.75285zm153.28,0.125zm112.47,0.5625-0.1651,1.6099zm-292.25,0.65625,0.022,1.0276zm-30.906,0.65625-0.2145,0.81945zm-1948.2,0.9377,0.93546,0.62196zm5.0625,0.6875,0.16233,0.34718zm2281.2,0.40625-0.094,0.125zm-55.688,0.53125,0.9828,1.4348zm-70.532,0.0625,0.2095,0.74301zm127.22,0.1875,0.7764,0.92141zm-7.9375,0.15625,0.068,0.62718zm9.375,0.84375-1.0146,0.2038zm-77.062,0.78125,0.1257,1.8983zm71.781,0.53125zm-862.56,0.6875,0.051,0.0857zm558.91,0.0312zm-1978.1,0.0938-0.20444,0.31851zm2211.6,0.0625zm-791.66,0.21875-0.9097,0.38973zm874.66,0.125,0.7033,2.68zm-2286.2,2.6562,0.17731,0.65255zm2205,0.28125zm-65.844,2.9688-0.38,0.94582zm1.281,0.4375-0.488,0.55136zm-143.72,0.125-0.6269,1.2674zm288.66,0.65625zm-964.47,1.2188,0.074,1.1846zm664.13,0.53125-1.083,0.9819zm10.594,0.625zm-12.875,0.71875-0.6187,0.003zm156.38,0.15625-0.1181,0.76976zm181.16,0.53125-1.4447,0.88851zm-178.84,0.46875c1.6927,46.484-50.344,85.122-51.862,22.466,13.092-23.366-53.382-20.642-50.546,14.758-19.026-14.469-33.998-2.7814-46.966,13.374-5.0887,27.726-89.675,27.309-86.778,74.381,6.3757,9.1025-28.538,102.96,19.309,78.756,42.223-20.201,138.26,21.333,123.33-1.454,19.167-7.1393-1.4889,4.8451,14.752,21.446,22.06,46.124,87.412-2.6918,114.26-43.366,48.717-57.26-22.416-94.181-23.779-147.94-16.937-0.16282-1.0329-25.212-11.717-32.42zm-828.56,0.1875-1.4429,0.81553zm8.5,0.59375-0.1421,1.7646zm37.469,1.5312-1.9531,1.0261zm-4.6563,1.5312-1.5951,0.81047zm701.59,0.65625zm267.38,0.3125,0.057,0.73895zm-977,0.34375-0.5014,0.68135zm702.25,0.0312zm-660.88,0.4375zm-57.344,0.6875-1.1466,0.16873zm943.59,0.5313,2.3342,1.5699zm-942.03,0.21875,2.5002,1.3728zm-8.0939,0.0312-0.9295,0.25571zm-12.719,0.0625-0.1008,2.1006zm1014.1,0.34375,0.3565,0.4357zm-985.72,0.125,2.3323,0.90099zm92.531,3.4062c-19.609,36.74-54.976,53.102-46.85,104.27,31.705,42.332,63.298-80.025,46.85-104.27zm-38.094,1.5626,2.1671,0.96118zm-4.25,0.6875,0.6182,0.47359zm-77.281,0.90625,0.2073,0.18242zm7.125,0.71875,0.3479,1.4087zm-7.9377,0.1875-1.7221,1.0332zm89.031,2.125-0.01,2.0109zm-92.188,1zm118.69,0.0625-0.2508,0.72439zm-2.875,3.3125,0.234,0.98011zm-889,0.34375,0.0627,2.8144zm786.31,1.875,1.6354,1.1142zm1006.1,2.0312-0.1688,1.541zm-1018.3,2.0312-0.5856,0.27975zm-1.4375,1.4688-1.0698,0.43838zm2.8125,0.21875,1.5042,2.074zm1016.8,0.125-0.555,0.8312zm-1009.7,2.1875-1.1107,0.34329zm-782.81,0.96875-0.49313,0.86783zm784.62,0.1875,0.3015,0.84378zm10.094,0.59375,0.1484,0.66637zm989.5,0.84375zm11.25,2.25-0.018,2.4029zm-1.344,2.75-1.8324,1.453zm-302.03,0.9375-0.6518,0.59953zm302.97,0.78125-0.07,2.8034zm-1011.2,0.4375-0.6509,1.2774zm1003.5,0.875-0.3275,0.78316zm-0.125,2.2812zm-1004.2,0.90625,0.2913,1.1299zm-23.594,0.25,1.0884,0.56625zm-758.97,0.71875,1.8641,0.9489zm1793.8,0.21875zm-1003.1,0.0625-0.9773,1.0868zm1092.1,0.21875zm-1121.5,0.0312,1.2967,0.76001zm-758.62,1.625-0.50486,0.93754zm1790.7,0.5938-0.1518,0.6985zm-1027.8,0.0937,0.2739,0.0167zm23.25,0.375-0.287,0.69075zm1003.6,1.25,1.1442,1.0194zm-1022.3,0.375,0.601,0.26647zm-768.31,0.0625-0.80078,0.94183zm735.28,0.0625-2.1856,1.31zm163.41,0.15625-0.8694,1.9258zm-207.22,1.1562,0.8852,1.1099zm39.063,2.0312-0.6125,1.0132zm-112.16,0.0625-0.9828,0.58605zm167.62,0.34375,0.7712,0.064zm-15.938,0.4375,0.045,1.6017zm-773.66,0.25-0.31213,0.51074zm628.66,0.375zm1032.9,0.125,0.1347,0.82133zm5.25,0,0.1266,0.92085zm31.468,0,0.3118,0.65865zm-1698.6,0.2813,0.65258,0.36884zm0.96875,0.625zm661.91,0.0312,0.9933,0.288zm1205.6,0zm-1159.7,1,1.2589,0.2084zm-1.25,0.0625-1.314,0.27306zm1086.4,0.34375-0.6527,0.36884zm-134.31,0.0312,0.1551,0.63397zm135.09,0zm-1129.3,0.3125,0.6356,0.78017zm108.81,0.90625,0.0003,0.32724zm-59.406,0.34375zm-16.531,0.0312-12.77,2.194zm20,0.78125-1.062-0.009zm-46.5,0.21875,2.6173,0.25555zm-668.75,0.25,0.80943,0.85649zm720.22,0.40625,1.6112,0.66819zm-43.469,0.28125,0.7778,0.21216zm-680.37,0.40625-0.29449,0.87704zm698.66,0.2189-0.2308,0.041zm75.719,0.96875,0.03,0.21704zm-81.562,0.4375-2.4817,0.45385zm25.719,2.25,0.8962,1.4647zm-34.656,0.65625-0.01,1.6531zm1114.4,0.96875zm-1026.2,2.9062,0.8714,0.93462zm897.22,0.46875,0.2143,0.7419zm50.125,0.5625,0.1015,0.75821zm-4.531,0.15625,0.1261,0.9697zm-993.53,0.0937,0.3954,1.178zm1007.4,0.5313-0.5498,1.0174zm0.5,0.71875-0.5497,1.0171zm-1718.8,0.34385,0.46579,1.0636zm1788.3,0.21875-0.1778,1.518zm-1026.1,0.0625-0.069,2.2061zm940.69,0.46875,0.076,0.89793zm-939.69,2.3438,0.02,2.1009zm-46.188,2.6562,1.7646,1.0021zm230.88,0.375zm798.53,0.78125zm43.656,0.53125-0.1377,0.50513zm-1790.5,0.0312,0.28022,0.89275zm0.4375,2.5,0.95949,0.62247zm721.97,0.2188,1.0869,0.38842zm1043.1,0.21875-0.7962,1.1593zm-1763.5,0.8125,0.0943,0.18372zm0.15625,0.375-0.10302,1.1228zm1700.3,0.0937,0.1583,0.83838zm66.594,0.5zm-97.625,0.9375,0.1293,0.69642zm-947.62,0.375,0.1318,1.6487zm208.47,0.25zm-929,1.1562,0.88312,1.0226zm1700.6,2.125,1.0332,0.66415zm-979.09,0.4375,0.7823,1.4908zm34.562,0.21875,0.096,0.0184zm-753.94,0.1875,0.54871,2.1528zm43.75,0-0.32717,2.239zm1724.5,0.0625,0.3521,1.6704zm-119.56,1.25,0.1191,0.9095zm-923.38,1.5312,1.3076,0.45679zm977.31,0.0625,0.1153,0.8204zm-30.812,2.7188,0.119,0.82122zm-1669.9,0.0625,1.2248,2.6677zm1667.6,0.0937,0.1267,0.82286zm-940.47,0.40625,0.8139,0.53zm4.8436,1,9.3499,1.4738zm-721.53,0.5-1.3645,1.956zm712.53,2.625-1.6138,0.42154zm1037.3,0.125,0.057,0.42139zm-1016.7,0.84375,0.5435,2.4163zm-736.03,0.5624-0.50565,0.77145zm0.65625,1.7813,0.0809,1.3635zm1659.9,1.375,0.1278,0.96285zm-952,0.8125-0.6706,0.69109zm-2.1563,1.75-1.2653,0.70706zm-3.7812,3.5312-0.306,0.8192zm-7.4688,8.0938-0.9574,0.72124zm-0.9062,0.4688-0.01,0.2744zm-43.625,1.4687zm43.25,1-0.6355,1.7156zm-19.375,1.7187-0.5436,0.19646zm1.8439,0.4688,0.7865,0.5762zm63.375,1.5625-0.3566,0.8162zm-48.156,1.1875-1.197,0.70376zm-3.9375,0.875-2.1033,0.6168zm47.5,0.062-1.0048,0.23468zm-64.219,0.2813-0.4414,1.2735zm-2.8437,4.125-0.5016,0.3618zm63.219,0.4062-0.5042,1.4983zm-64.156,0.375-0.8761,0.4455zm-11.938,1.2188-0.1114,1.5763zm9.4687,1.375-0.9977,0.1995zm-1.1873,0.4062,0.019,0.53115zm67.125,0.5938,1.1086,2.1868zm-67.375,0.2812-0.1528,0.1862zm-0.2189,0.25-1.4797,0.21401zm-6.9688,0.094-0.4452,0.0746zm84.406,0,1.103-0.0711zm-1.3125,0.031-0.2348,1.3357zm-5.4061,3.5938,1.033,0.321zm-104.69,7.4687,0.7864,0.85294zm20.906,1.75zm-19.438,0.875,0.7566,1.758zm2.75,2.8437,1.4199,0.50164zm7.2812,0.75-1.0147-0.0141zm-652.69,20.156-0.10994,1.7842zm92,4.8437-0.22474,0.56197zm35.75,7.25zm-0.25,5.375,0.21814,1.6813zm1638.4,10.469c6.1273,23.46-47.633,82.809,0.5129,45.133,41.187-20.679-8.328-10.274-0.5129-45.133zm-261.81,10.781zm270.75,3.4688-0.7694,2.1639zm-5.125,5.9688-1.0845,0.58237zm-1760.2,4.5624,0.51354,2.394zm0.75,3.9062,0.53172,0.9332zm3,5,0.91816,1.4695zm0.0312,4.4375zm65.469,1.75-0.46111,0.2975zm0.34375,0.9375,0.4686,0.5325zm-65.906,4.0313-0.76585,0.1945zm1520.9,0zm26.969,1.3124zm-1548.8,0.063,0.57705,1.0761zm0.1875,2.875-0.003,0.3806zm1548.1,1.9374-0.962,1.0027zm-1546.9,1.5313-0.13422,1.0773zm1718.7,0.062c-40.344,18.42-116.64,78.486-30.243,30.679,31.746-4.2392,33.017-28.316,30.243-30.679zm-198.09,1.3125zm205.06,0.2187-1.5075,1.2817zm-1724,4.3126,0.56399,2.22zm-6.7188,5.0937,0.34729,0.9354zm-6.6875,0.1563zm11.406,2.5937,0.0966,0.2992zm5.5,0.031zm-11.469,3,0.78326,0.3561zm1.9375,4.2187,1.0478,0.1284zm-6.375,5.1875-0.10472,0.3108zm20.781,0.25,0.63179,0.645zm0.5625,1.0625-0.18031,0.8544zm1760.3,0.1879zm-1774.3,0.75-1.2336,0.3124zm4.625,0.6875,0.32027,0.7017zm-4.7812,0.5,1.0272,0.1364zm15.375,0-0.21945,0.9117zm-14.281,0.094,0.79908,0.9059zm-3.4688,0.9063,0.30645,0.1373zm2.5938,0.25,0.5901,0.4456zm-2.125,0.1875-0.12878,0.07zm16.844,0.2188,0.92857,1.3592zm-15.25,0.4062,0.69677,0.4137zm1774.7,0.2812-0.8779,0.4544zm-1772.9,0.3126-0.58444,0.5339zm-3.375,0.1562,0.0498,0.1538zm2.9062,0.75-0.25442,0.3176zm-1.6875,0.062,0.71083,0.1991zm2.0625,0,0.4462,0.7081zm-2.5,0.2187-0.81138,0.5535zm7.4062,0.094zm13,0,1.0564,0.6359zm-19.469,0.1875,1.0042,0.5257zm0.78125,1.3438zm-4.75,0.031,0.36692,0.8484zm7.625,0,0.593,0.5925zm-5.7188,0.3437-0.099,0.3492zm23.219,0.7188-0.0587,0.123zm-22.531,0.094,0.88913,0.7066zm5.9688,0.094,0.15493,0.3829zm12.469,0.031,0.38302,0.2512zm-14.781,0.1562-0.55973,0.6212zm0.875,0.3125,0.56015,0.5979zm-8.0938,0.2813,0.16431,0.3797zm6.8438,0.4374,0.0737,0.4757zm15.969,0.4376,1.0272,0.206zm-14.219,0.5zm3.5938,0.625,0.63183,0.6918zm-6.3125,0.7187,0.5635,0.8219zm20.781,0.1875,0.36166,1.1993zm-18.188,0.4375,1.1342,0.4414zm-1.9062,0.7813-0.25859,0.5184zm6.0625,0.031-0.71247,0.1425zm-2.6562,0.4062-0.37942,0.4731zm1646.8,0.4375-0.3739,0.4673zm-1647.1,0.2816,0.47789,0.6069zm2.4375,0.031,0.66651,1.9785zm-4.875,0.094zm-1.1875,0.2812,0.57072,0.6908zm19.719,0.4063-0.23487,0.5616zm-16.094,0.1563,0.78256,0.5709zm-3.25,0.062-0.12217,0.9172zm-1.8125,0.7188,0.81337,0.3752zm7.125,0.094,0.42012,0.9758zm-3.1562,0.2812,0.42804,0.6465zm1.7188,0.2812,0.40941,0.6859zm15.938,0.5313,0.83848,0.8262zm-13.656,0.2813-0.47941,0.702zm0.1875,0.7812,0.73828,0.6066zm1639,0.2812-0.9869,0.4097zm-1638.8,0.6563,0.4953,0.6004zm16.656,5.3437-0.60883,1.6748zm1623.6,0zm-1640.7,3.219-0.20513,0.8751zm17.75,1.2812-0.0474,0.037zm-1.8125,2.6563-0.11798,1.0015zm-18.531,1.5313-0.008,0.596zm1.0312,0,0.0146,0.3473zm1.25,1,0.0733,1.9295zm5.0312,0.2812zm-4.0625,0.75,0.52426,0.7282zm6.8125,0,0.50796,0.8201zm9.1562,0.4375,1.1647,1.0963zm-17.281,0.4687,0.86667,0.2732zm9.3438,0.1563,0.65405,0.3413zm-12.469,0.094zm2.8438,0.3126,1.9022,1.5903zm2.5938,0.25zm2.5312,4.5zm0.375,4.3437-2.0228-1.345zm-1.6875-8.6875,0.75218,0.783zm1.9375,1.2188,0.64242,0.6246zm1.3125,0.7812,0.88903,0.6044zm-7.7188,0.4375-0.0855,1.2258zm19.094,0.031,1.1277,1.5141zm-15.625,1.6874,0.47825,0.342zm-2.125,0.094-0.94437,0.3514zm966.12,0zm-964.72,0.3438,0.46189,0.6851zm-0.59375,0.9374,1.7085,1.1412zm-1.1562,0.375,1.7573,1.058zm19.062,0-0.68483,0.4089zm947.91,0.2813-0.4374,0.7817zm-965.72,0.9375-0.17714,1.9977zm15.906,0.031-0.14527,1.113zm-16.969,0.25,0.059,0.2952zm969.22,1.0626-0.6584,0.2863zm-966.31,0.5312,0.5791,0.3801zm12.375,0.625,0.76489-0.2795zm-6.25,1.0938,0.9318,1.0223zm-7.25,0.5,0.64916,0.395zm14.219,1.375,0.5907,0.835zm1.3125,2.75,0.3505,0.7058zm30.469,0.094-1.0532,0.1419zm-41.188,0.25zm4.8125,0-0.75465,0.4831zm0.21875,2.875-0.38525,0.7697zm-3.0312,0.062,0.50473-0.053zm4.1875,0.8438,2.0555,2.034zm-5.5625,0.062,1.039,1.4587zm13.969,0.4376,0.78033,1.0363zm1582.4,0.062-2.0368,1.5254zm-1576.6,0.5626zm-17.344,0.3437,0.50192,0.7409zm1.5312,0.125,0.99665,0.975zm1.4688,0.6563zm1587.8,0.8124-0.496,0.3017zm-1584.8,0.8448,1.3237,1.655zm-0.71875,0.6562,0.595,0.7863zm-2.1562,0.7188-0.64916,0.3952zm1.5312,0.8125,0.28698,1.4444zm98.188,0.2813,1.3724,0.088zm-93.469,0.031,0.14088,0.4804zm11.406,0.031,0.24636,1.1137zm-10.312,0.063,0.70012,0.5425zm-8.5625,0.1562,0.79158,2.2736zm107.97,0.062zm-9.4375,0.062,0.49955,0.7374zm1.1875,0.031,0.68476,0.1236zm-93.344,0.1563,0.6253,0.5212zm97.688,0.2813zm-89.812,0.5624,1.7273,1.135zm-6.125,1.0626,1.5246,1.8772zm-4.5938,1.1562,1.1563,2.4089zm6.1875,0.062,1.0776,0.7996zm-7.0625,0.25,0.23783,0.8798zm3.6562,0.062,2.2999,1.0844zm88.656,0.4375,0.13558,0.7312zm-84.188,0.5645,0.23245,0.2995zm-5.3438,0.125,0.18567,1.106zm11.844,0.25-0.43944,0.8065zm-5.8438,0.1875,0.51727,0.6074zm-1.7188,0.094,2.3545,1.3472zm14.156,0.2189,16.495,1.1094zm-16.969,0.094-0.63529,0.4068zm105.06,0.4061,0.64916,0.3952zm-102.22,0.5625,0.4964,0.2293zm-3.3438,0.1564,0,0.7125zm97.625,0.5,0.45673,0.739zm-98.438,0.5,1.3355,0.5098zm8.1562,1.6561,0.80309,1.9899zm28.438,0.5c9.2292,22.173-18.588,13.264,24.954,21.079,29.224,1.7293-21.946-16.853-24.954-21.079zm-32.625,2.25,9.1324,3.2729zm7.6562,0.875,0.51478,0.2863zm952.91,1,2.3125,1.0582zm-954.87,2.2189-0.51804,0.3236zm5.0312,1.1561-0.91793,0.4448zm2.0938,0.062zm-3.9688,0.7813,0.12877,0.3359zm12.781,2.9687-0.6638,0.2597zm1,0.25zm2.6562,0.6875zm217.66,0.5312zm-228.81,0.063-0.21602,0.3787zm19.5,0.1874-0.11209,0.4165zm-12.656,0.094,0.008,0.8118zm13.25,0.9689-0.68202,0.077zm-12.094,0.25,0.70052,0.5604zm4.875,0.125,0.66978,0.3952zm-5.5625,0.7186-0.28215,0.4476zm1.9688,0.2187-0.2939,0.3937zm-1.0625,0.7813,0.67114,0.2441zm2.9375,1.8125,0.42122,0.8625zm51.062,0.4062-0.81805,0.58zm-40.75,0.9376-0.97322,0.1003zm-5.1875,0.125,1.3962,0.2071zm6.2188,0.4062zm2.6875,0.1562-0.70539,0.4868zm9,0.125c-16.319,2.7192-12.257-6.7423,0,0.0001zm10.375,0.5313,0.90312,0.2208zm-19.062,1.5,0.61713,0.8267zm22.688,0.031,0.0359,0.8507zm-1.75,0.4062-0.34533,0.4687zm-20.875,0.125,0.71247,0.1425zm1.2812,0.4375-0.0233,0.3449zm1.8438,0.3437,0.46282,0.3057zm1.125,0.5313,0.61632,0.6503zm12.688,0.9375,0.20743,0.3273zm2.2812,0.9375,0.42607,0.6508zm-0.625,1.5-0.48776,0.1575zm3,0,0.63369,0.6941zm-0.6875,0.125,0.11745,0.2796zm151.31,37.562zm8.3438,1.4062-1.8016,0.288z"/>
</svg>
